<svg xmlns="http://www.w3.org/2000/svg" xmlns:xlink="http://www.w3.org/1999/xlink" fill="none" version="1.1" width="46.22222137451172" height="46.22222137451172" viewBox="0 0 46.22222137451172 46.22222137451172"><g style="mix-blend-mode:passthrough"><path d="M20.2607,0.17645Q20.7549,0.115029,21.2513,0.0749532L21.5732,4.06198Q21.1627,4.09512,20.754,4.14591L20.2607,0.17645ZM18.2868,0.509121Q18.7753,0.404858,19.2679,0.321797L19.933,4.2661Q19.5257,4.33479,19.1218,4.421L18.2868,0.509121ZM16.3485,1.01154Q16.8277,0.8649,17.3129,0.739172L18.3164,4.61124Q17.9153,4.7152,17.519,4.83646L16.3485,1.01154ZM14.4606,1.68003Q14.9266,1.4919,15.4004,1.32421L16.735,5.09502Q16.3432,5.23369,15.9578,5.38925L14.4606,1.68003ZM12.6398,2.5083Q13.0876,2.28073,13.5448,2.07283L15.2005,5.71408Q14.8224,5.886,14.4522,6.07417L12.6398,2.5083ZM10.8986,3.49024Q11.3238,3.22558,11.7601,2.9796L13.7247,6.4639Q13.3639,6.66731,13.0123,6.88616L10.8986,3.49024ZM9.24748,4.61995Q9.64756,4.31999,10.0602,4.03762L12.319,7.33881Q11.9778,7.57229,11.647,7.82033L9.24748,4.61995ZM7.69949,5.88888Q8.07208,5.55546,8.45873,5.23847L10.9947,8.33183Q10.675,8.59393,10.3669,8.86962L7.69949,5.88888ZM6.26707,7.28703Q6.60991,6.92209,6.96823,6.57234L9.76219,9.43482Q9.46588,9.72403,9.18238,10.0258L6.26707,7.28703ZM4.96158,8.80314Q5.27141,8.41013,5.59796,8.03089L8.62908,10.6409Q8.35904,10.9545,8.10284,11.2795L4.96158,8.80314ZM3.79283,10.4254Q4.06685,10.0081,4.35863,9.60304L7.60425,11.941Q7.36297,12.2759,7.13639,12.621L3.79283,10.4254ZM2.76729,12.1451Q3.00434,11.7054,3.26017,11.2763L6.69591,13.3246Q6.48436,13.6794,6.28834,14.0431L2.76729,12.1451ZM1.89439,13.9474Q2.09288,13.4878,2.31108,13.0373L5.91109,14.7808Q5.73065,15.1534,5.56651,15.5334L1.89439,13.9474ZM1.18092,15.818Q1.33936,15.3415,1.51835,14.8724L5.25556,16.2983Q5.10755,16.6863,4.97653,17.0802L1.18092,15.818ZM0.6322,17.7425Q0.749255,17.2524,0.887561,16.7678L4.73394,17.8657Q4.61958,18.2664,4.52278,18.6717L0.6322,17.7425ZM0.252143,19.7065Q0.326234,19.2091,0.421894,18.7153L4.34887,19.4761Q4.26977,19.8844,4.2085,20.2958L0.252143,19.7065ZM0.0433851,21.6957Q0.074122,21.1947,0.126575,20.6956L4.10467,21.1137Q4.06129,21.5264,4.03588,21.9406L0.0433851,21.6957ZM0.00700974,23.6803Q0,23.3957,0,23.1111Q0,22.9022,0.00377755,22.6933L4.00312,22.7656Q4,22.9383,4,23.1111Q4,23.3465,4.0058,23.5818L0.00700974,23.6803ZM0.142879,25.677Q0.0873069,25.1796,0.0533242,24.6802L4.0441,24.4086Q4.0722,24.8216,4.11815,25.2329L0.142879,25.677ZM0.451131,27.6552Q0.352475,27.1632,0.275264,26.6674L4.22763,26.052Q4.29147,26.4619,4.37305,26.8687L0.451131,27.6552ZM0.929609,29.5999Q0.788358,29.117,0.668252,28.6285L4.55259,27.6735Q4.65191,28.0776,4.76872,28.4769L0.929609,29.5999ZM1.57378,31.4936Q1.3914,31.025,1.22957,30.549L5.01677,29.2617Q5.15058,29.6553,5.30139,30.0428L1.57378,31.4936ZM2.37845,33.3229Q2.157,32.8733,1.95525,32.4145L5.61684,30.8043Q5.78368,31.1837,5.96681,31.5555L2.37845,33.3229ZM3.33898,35.0772Q3.08008,34.6494,2.83993,34.2108L6.34839,32.2897Q6.54699,32.6524,6.76109,33.0061L3.33898,35.0772ZM4.44833,36.7428Q4.1537,36.3395,3.87677,35.9237L7.2058,33.7062Q7.43478,34.0499,7.67844,34.3835L4.44833,36.7428ZM5.69798,38.3067Q5.3691,37.9298,5.05683,37.5391L8.18159,35.0419Q8.43981,35.365,8.7118,35.6767L5.69798,38.3067ZM7.07799,39.7563Q6.71735,39.4089,6.3721,39.0463L9.26923,36.2882Q9.55477,36.5882,9.85297,36.8754L7.07799,39.7563ZM8.57716,41.0802Q8.18843,40.7658,7.81367,40.4348L10.4613,37.4365Q10.7712,37.7101,11.0926,37.9701L8.57716,41.0802ZM10.1863,42.2702Q9.77196,41.9907,9.37012,41.6936L11.7484,38.4774Q12.0807,38.7231,12.4233,38.9542L10.1863,42.2702ZM11.8931,43.317Q11.4556,43.0742,11.029,42.8125L13.1201,39.4027Q13.4729,39.619,13.8347,39.8199L11.8931,43.317ZM13.684,44.2121Q13.226,44.0075,12.7772,43.7832L14.5657,40.2053Q14.9369,40.3908,15.3157,40.5601L13.684,44.2121ZM15.5449,44.9486Q15.0692,44.7838,14.6012,44.5984L16.074,40.8794Q16.4611,41.0328,16.8545,41.1691L15.5449,44.9486ZM17.4617,45.5211Q16.9747,45.3983,16.4936,45.2545L17.639,41.422Q18.0368,41.5409,18.4394,41.6424L17.4617,45.5211ZM19.42,45.9256Q18.9257,45.8456,18.4353,45.7443L19.2446,41.827Q19.6501,41.9108,20.0588,41.9769L19.42,45.9256ZM21.4055,46.1592Q20.9075,46.1223,20.4116,46.064L20.8788,42.0914Q21.289,42.1396,21.7007,42.1701L21.4055,46.1592ZM23.395,46.2205Q23.2531,46.2222,23.1111,46.2222Q22.7592,46.2222,22.4074,46.2115L22.5291,42.2134Q22.8201,42.2222,23.111,42.2222Q23.2284,42.2222,23.3459,42.2208L23.395,46.2205ZM25.3933,46.1093Q24.8928,46.1589,24.3905,46.1868L24.1691,42.1929Q24.5844,42.1699,24.9984,42.1288L25.3933,46.1093ZM27.3754,45.8254Q26.8801,45.9184,26.3812,45.9897L25.8153,42.0299Q26.2278,41.971,26.6372,41.8941L27.3754,45.8254ZM29.3223,45.3719Q28.8378,45.5071,28.3478,45.6211L27.4415,41.7252Q27.8466,41.6309,28.2473,41.5191L29.3223,45.3719ZM31.222,44.7522Q30.7525,44.9282,30.2758,45.0836L29.0357,41.2807Q29.43,41.1521,29.8182,41.0066L31.222,44.7522ZM33.0623,43.9701Q32.611,44.1854,32.1508,44.381L30.5862,40.6997Q30.9668,40.5379,31.34,40.3599L33.0623,43.9701ZM34.8292,43.0312Q34.399,43.2843,33.9582,43.5186L32.0808,39.9865Q32.4453,39.7928,32.8011,39.5835L34.8292,43.0312ZM36.509,41.9424Q36.1021,42.232,35.683,42.5036L33.5071,39.1472Q33.8537,38.9226,34.1901,38.6832L36.509,41.9424ZM38.0884,40.7123Q37.7071,41.0368,37.3121,41.3445L34.8543,38.1886Q35.1809,37.9343,35.4961,37.666L38.0884,40.7123ZM39.5548,39.3508Q39.203,39.707,38.8361,40.0477L36.1145,37.1164Q36.4179,36.8346,36.7088,36.5401L39.5548,39.3508ZM40.8976,37.8679Q40.5783,38.2528,40.2426,38.6235L37.2775,35.9387Q37.5552,35.6321,37.8192,35.3138L40.8976,37.8679ZM42.1079,36.2734Q41.823,36.6846,41.5205,37.0831L38.3343,34.6648Q38.5843,34.3354,38.8199,33.9954L42.1079,36.2734ZM43.1758,34.5798Q42.9271,35.015,42.6597,35.4389L39.2763,33.3052Q39.4974,32.9547,39.7031,32.5949L43.1758,34.5798ZM44.0929,32.8007Q43.8821,33.2572,43.6517,33.704L40.0966,31.8706Q40.2871,31.5011,40.4614,31.1237L44.0929,32.8007ZM44.8522,30.9499Q44.682,31.422,44.4915,31.8863L40.791,30.3675Q40.9486,29.9836,41.0894,29.5932L44.8522,30.9499ZM45.4484,29.0414Q45.3201,29.5249,45.1709,30.0023L41.3529,28.8096Q41.4762,28.4148,41.5823,28.015L45.4484,29.0414ZM45.8772,27.0894Q45.7914,27.5804,45.6846,28.0672L41.7776,27.2094Q41.866,26.8068,41.9369,26.4009L45.8772,27.0894ZM46.1358,25.108Q46.0929,25.6029,46.0287,26.0955L42.0622,25.579Q42.1152,25.1717,42.1507,24.7624L46.1358,25.108ZM46.2222,23.1111Q46.2222,23.6068,46.201,24.1021L42.2046,23.9306Q42.2222,23.521,42.2222,23.1111L46.2222,23.1111ZM46.1939,21.9675Q46.2185,22.4639,46.2217,22.9609L42.2218,22.9868Q42.2192,22.5759,42.1988,22.1654L46.1939,21.9675ZM46.0085,19.9754Q46.0759,20.4675,46.1221,20.9619L42.1394,21.334Q42.1012,20.925,42.0455,20.5181L46.0085,19.9754ZM45.6514,18.0064Q45.7612,18.4913,45.8501,18.9804L41.9145,19.6953Q41.841,19.2909,41.7502,18.89L45.6514,18.0064ZM45.1251,16.075Q45.2771,16.5504,45.4084,17.0319L41.5492,18.0841Q41.4407,17.6859,41.315,17.2928L45.1251,16.075ZM44.4334,14.1957Q44.6266,14.6579,44.7997,15.1281L41.0459,16.5097Q40.9028,16.1209,40.743,15.7388L44.4334,14.1957ZM43.5815,12.3832Q43.8147,12.8282,44.0283,13.2828L40.408,14.9838Q40.2314,14.6079,40.0385,14.24L43.5815,12.3832ZM42.5774,10.6538Q42.8478,11.0762,43.0996,11.5101L39.64,13.5179Q39.4318,13.1592,39.2082,12.8098L42.5774,10.6538ZM41.4276,9.01753Q41.7328,9.41422,42.0206,9.82376L38.7478,12.1235Q38.5098,11.7848,38.2575,11.4568L41.4276,9.01753ZM40.1397,7.4858Q40.4779,7.85435,40.7998,8.2372L37.7383,10.8116Q37.4721,10.4949,37.1924,10.1902L40.1397,7.4858ZM38.7237,6.07088Q39.0929,6.4091,39.447,6.763L36.6197,9.59249Q36.3268,9.29982,36.0215,9.02015L38.7237,6.07088ZM37.191,4.78409Q37.5882,5.08925,37.9719,5.41134L35.3998,8.47477Q35.0826,8.20842,34.7541,7.95607L37.191,4.78409ZM35.5539,3.63547Q35.9752,3.90461,36.3844,4.19172L34.0871,7.46622Q33.7486,7.22879,33.4003,7.00626L35.5539,3.63547ZM33.8238,2.6328Q34.2657,2.86397,34.6973,3.11399L32.692,6.57503Q32.3351,6.36828,31.9697,6.17713L33.8238,2.6328ZM32.0107,1.78224Q32.4716,1.97456,32.9238,2.18662L31.2254,5.80816Q30.8515,5.63281,30.4704,5.47378L32.0107,1.78224ZM30.1309,1.0919Q30.6079,1.24397,31.0779,1.41655L29.699,5.17139Q29.3104,5.02867,28.9159,4.90292L30.1309,1.0919ZM28.1991,0.567016Q28.6889,0.67757,29.1735,0.809297L28.1242,4.66923Q27.7235,4.5603,27.3185,4.46888L28.1991,0.567016ZM26.2297,0.211379Q26.7289,0.27936,27.2246,0.369028L26.5127,4.30516Q26.1027,4.23101,25.69,4.17479L26.2297,0.211379ZM24.2375,0.027467Q24.7412,0.0520467,25.2434,0.0985753L24.8743,4.08151Q24.4591,4.04304,24.0426,4.02271L24.2375,0.027467ZM23.2444,0.000384409L23.2329,4.00037L23.1111,4Q22.7572,4,22.4035,4.01311L22.2553,0.0158496Q22.6831,-3.57997e-15,23.1111,0Q23.1778,0,23.2444,0.000384409Z" fill-rule="evenodd" fill="#fff" fill-opacity="0.20000000298023224"/></g></svg>