<svg xmlns="http://www.w3.org/2000/svg" xmlns:xlink="http://www.w3.org/1999/xlink" fill="none" version="1.1" width="15.871121406555176" height="16" viewBox="0 0 15.871121406555176 16"><g style="mix-blend-mode:passthrough"><path d="M15.1392,15.9994L0.731966,15.9994C0.728497,15.9994,0.724448,15.9995,0.720367,15.9995C0.322515,15.9995,0,15.6769,0,15.2791C0,14.8812,0.322531,14.5587,0.720367,14.5587C0.724448,14.5587,0.72853,14.5588,0.732595,14.5588L4.6999,14.5588L1.79935,10.807C1.58078,10.5241,1.85039,9.97839,1.85375,9.96922L4.45105,5.29215C4.45947,5.277,4.46975,5.26448,4.47984,5.25064L1.81729,0.811175C1.77152,0.733514,1.7445,0.640061,1.7445,0.540315C1.7445,0.241902,1.9864,0,2.28482,0C2.47768,0,2.64697,0.101068,2.74257,0.253114L5.41446,4.83448C5.60534,5.20521,5.49991,5.33593,5.41446,5.55484L2.85044,10.4L5.95833,14.4206C6.0054,14.4874,6.03765,14.5678,6.04855,14.6549L8.30154,14.5598L5.40099,10.807C5.18224,10.5241,5.45203,9.97839,5.45539,9.96922L8.05288,5.29215C8.0613,5.277,8.07158,5.26448,8.08168,5.25064L5.41913,0.811175C5.37634,0.735547,5.35113,0.645094,5.35113,0.548752C5.35113,0.250339,5.59303,0.0084371,5.89144,0.0084371C6.0808,0.0084371,6.2474,0.105843,6.34389,0.253259L9.01612,4.83443C9.207,5.20516,9.10157,5.33588,9.01612,5.5548L6.45229,10.4L9.56094,14.4206C9.60761,14.4871,9.63956,14.5672,9.65031,14.6539L11.9034,14.5593L9.00284,10.807C8.78409,10.5241,9.05369,9.97835,9.05724,9.96919L11.6549,5.29212C11.6931,5.23127,11.742,5.18071,11.7995,5.14181L9.02078,0.811175C8.97502,0.733514,8.94799,0.640061,8.94799,0.540315C8.94799,0.241902,9.1899,0,9.48831,0C9.68117,0,9.85046,0.101068,9.94606,0.253114L12.618,4.83448C12.8088,5.20521,12.7034,5.33593,12.618,5.55484L10.0539,10.4L13.1618,14.4206C13.2086,14.4873,13.2405,14.5675,13.2513,14.6543L15.1392,14.5594C15.1426,14.5593,15.1467,14.5593,15.1508,14.5593C15.5486,14.5593,15.8711,14.8818,15.8711,15.2796C15.8711,15.6775,15.5486,16,15.1508,16C15.1467,16,15.1426,16,15.1385,15.9999L15.1392,15.9994ZM1.85373,9.96922L1.82812,10.0152C1.84905,9.97764,1.85428,9.96772,1.85373,9.96922ZM5.45558,9.96922L5.42905,10.0152C5.45073,9.97764,5.45615,9.96772,5.45541,9.96922L5.45558,9.96922ZM9.05745,9.96922L9.03183,10.0152C9.05259,9.97764,9.0578,9.96772,9.05727,9.96922L9.05745,9.96922Z" fill="#F7C706" fill-opacity="1"/></g></svg>