<svg xmlns="http://www.w3.org/2000/svg" xmlns:xlink="http://www.w3.org/1999/xlink" fill="none" version="1.1" width="30.6947021484375" height="32.39886474609375" viewBox="0 0 30.6947021484375 32.39886474609375"><defs><linearGradient x1="0.5" y1="0" x2="0.5" y2="1" id="master_svg0_324_04632"><stop offset="0%" stop-color="#D5FEFE" stop-opacity="1"/><stop offset="100%" stop-color="#A9F2FF" stop-opacity="1"/></linearGradient><linearGradient x1="0.5" y1="0" x2="0.5" y2="1" id="master_svg1_324_04632"><stop offset="0%" stop-color="#D5FEFE" stop-opacity="1"/><stop offset="100%" stop-color="#A9F2FF" stop-opacity="1"/></linearGradient><linearGradient x1="0.5" y1="0" x2="0.5" y2="1" id="master_svg2_324_04632"><stop offset="0%" stop-color="#D5FEFE" stop-opacity="1"/><stop offset="100%" stop-color="#A9F2FF" stop-opacity="1"/></linearGradient></defs><g><g style="mix-blend-mode:passthrough"><path d="M26.812019075927736,1.67841C26.054199075927734,2.01398,25.228439075927735,2.14266,24.411009075927733,2.05258L24.412719075927733,2.05078C23.779999075927734,1.96546,23.152695075927735,2.24588,22.770708075927736,2.78478C22.388720875927735,3.32369,22.311135075927734,4.03773,22.567621075927736,4.65384C22.968868075927734,3.50826,24.080919075927735,2.82079,25.224419075927734,3.01142C26.929689075927733,3.05639,27.540169075927736,2.75057,28.002299075927734,2.022C28.464419075927736,1.29343,27.985239075927733,0,27.985239075927733,0C27.978019075927733,0.767769,27.505169075927736,1.44422,26.812019075927736,1.67841ZM26.051359075927735,3.96849L25.875719075927734,3.96849C24.908829075927734,3.97928,24.397249075927736,4.81758,24.738309075927734,5.52097C24.996339075927736,4.82688,25.680139075927734,4.41853,26.377059075927733,4.54235C27.418979075927734,4.57113,27.797549075927733,4.38944,28.082329075927735,3.95409C28.367109075927736,3.51875,28.070389075927736,2.74701,28.070389075927736,2.74701C28.064659075927736,3.21149,27.771869075927732,3.61748,27.349059075927734,3.74722C26.939839075927736,3.93067,26.494529075927733,4.0066,26.051359075927735,3.96849Z" fill-rule="evenodd" fill="url(#master_svg0_324_04632)" fill-opacity="1"/></g><g style="mix-blend-mode:passthrough"><rect x="23.59228515625" y="6.23870849609375" width="2.557894706726074" height="6.2207136154174805" rx="0" fill="url(#master_svg1_324_04632)" fill-opacity="1"/></g><g style="mix-blend-mode:passthrough"><path d="M18.7101,29.50430763553232L18.7101,2.2217076355323195L18.7084,2.2343076355323195C18.6584,1.4002276355323195,18.1968,0.6551786355323196,17.4927,0.27216363553231954C16.7885,-0.11085136446768046,15.9454,-0.07552006446768045,15.2723,0.36520963553231955L3.29798,5.50656763553232C2.65411,5.886247635532319,2.25111,6.599387635532319,2.24072,7.37745763553232L2.24072,29.50430763553232L0,29.50430763553232L0,32.39880763553232L30.6947,32.39880763553232L30.6947,29.50430763553232L28.4301,29.50430763553232L28.4301,12.70770763553232C28.3655,12.007407635532319,27.9845,11.383107635532319,27.407,11.031107635532319L20.7565,8.73025763553232L20.7565,29.50430763553232L18.7101,29.50430763553232ZM13.765,8.23013763553232L13.7615,8.231557635532319L13.7615,8.23013763553232L13.765,8.23013763553232ZM13.7615,8.231557635532319L13.7615,11.37290763553232L7.19116,14.11980763553232L7.19116,10.97350763553232L13.7615,8.231557635532319ZM13.765,15.066107635532319L13.7632,15.066807635532319L13.7632,15.066107635532319L13.765,15.066107635532319ZM7.19116,17.73030763553232L13.7632,15.066807635532319L13.7632,18.19440763553232L7.19116,20.86040763553232L7.19116,17.73030763553232Z" fill-rule="evenodd" fill="url(#master_svg2_324_04632)" fill-opacity="1"/></g></g></svg>