<svg xmlns="http://www.w3.org/2000/svg" xmlns:xlink="http://www.w3.org/1999/xlink" fill="none" version="1.1" width="40.49851989746094" height="10.799604415893555" viewBox="0 0 40.49851989746094 10.799604415893555"><defs><linearGradient x1="0.5" y1="0" x2="0.5" y2="1" id="master_svg0_324_04632"><stop offset="0%" stop-color="#D5FEFE" stop-opacity="1"/><stop offset="100%" stop-color="#A9F2FF" stop-opacity="1"/></linearGradient></defs><g><path d="M12.0395,3.10614L8.51651,3.10614L8.67801,1.83118L4.45521,1.83118L3.56998,8.96842L7.79876,8.96842L7.9782,6.77475L6.91353,4.93732L11.6746,4.93732L10.9748,10.7996L1.08774,10.7996Q0.830546,10.7996,0.609238,10.7059Q0.393911,10.6059,0.238397,10.4371Q0.0828837,10.2621,0.0230707,10.0246Q-0.030761,9.78714,0.0410146,9.5184L1.27316,0L12.3924,0L12.0395,3.10614ZM26.8432,0L25.5931,9.52465Q25.5931,10.0809,25.1625,10.4434Q24.7318,10.7996,24.1995,10.7996L14.3124,10.7996L15.5445,0.724973L15.0122,0L26.8432,0ZM19.0735,1.83118L18.0268,8.96842L22.2496,8.96842L23.3202,1.83118L19.0735,1.83118ZM40.4985,0L39.7987,5.90603Q39.6552,6.46851,39.2185,6.83725Q38.7879,7.19974,38.3871,7.19974L32.2084,7.19974L31.6761,10.7996L28.3326,10.7996L29.5647,0.53123L29.0324,0L40.4985,0ZM32.9262,1.83118L32.5613,5.36855L36.2697,5.36855L36.8021,1.83118L32.9262,1.83118Z" fill="url(#master_svg0_324_04632)" fill-opacity="1"/></g></svg>