<svg xmlns="http://www.w3.org/2000/svg" xmlns:xlink="http://www.w3.org/1999/xlink" fill="none" version="1.1" width="52" height="52" viewBox="0 0 52 52"><defs><clipPath id="master_svg0_3196_17467"><rect x="18" y="18" width="16" height="16" rx="0"/></clipPath><filter id="master_svg1_3196_17467/200_07311" filterUnits="objectBoundingBox" color-interpolation-filters="sRGB" x="-6" y="-5" width="25.333333015441895" height="22"><feFlood flood-opacity="0" result="BackgroundImageFix"/><feColorMatrix in="SourceAlpha" type="matrix" values="0 0 0 0 0 0 0 0 0 0 0 0 0 0 0 0 0 0 127 0"/><feOffset dy="1" dx="0"/><feGaussianBlur stdDeviation="1.5"/><feColorMatrix type="matrix" values="0 0 0 0 0.239215686917305 0 0 0 0 0.1411764770746231 0 0 0 0 0 0 0 0 0.20000000298023224 0"/><feBlend mode="normal" in2="BackgroundImageFix" result="effect1_dropShadow"/><feBlend mode="normal" in="SourceGraphic" in2="effect1_dropShadow" result="shape"/></filter></defs><g style="mix-blend-mode:passthrough"><g style="mix-blend-mode:passthrough"><path d="M45.1572,8.42153Q45.5651,8.86608,45.952,9.32908Q46.3388,9.79208,46.7038,10.2725Q47.0687,10.753,47.411,11.2498Q47.7533,11.7467,48.0722,12.2589Q48.3911,12.7711,48.6858,13.2975Q48.9806,13.824,49.2506,14.3635Q49.5207,14.9031,49.7654,15.4546Q50.0101,16.0061,50.229,16.5683Q50.4478,17.1306,50.6404,17.7024Q50.8329,18.2742,50.9988,18.8543Q51.1646,19.4344,51.3033,20.0216Q51.4421,20.6088,51.5534,21.2017Q51.6647,21.7947,51.7485,22.3922Q51.8322,22.9897,51.8881,23.5905Q51.944,24.1913,51.972,24.794Q52,25.3967,52,26Q52,26.6383,51.9687,27.2758Q51.9374,27.9133,51.8748,28.5484Q51.8122,29.1836,51.7186,29.815Q51.6249,30.4463,51.5004,31.0723Q51.3759,31.6983,51.2208,32.3175Q51.0657,32.9366,50.8804,33.5474Q50.6952,34.1582,50.4801,34.7591Q50.2651,35.3601,50.0209,35.9498Q49.7766,36.5394,49.5037,37.1164Q49.2308,37.6934,48.9299,38.2563Q48.6291,38.8192,48.3009,39.3667Q47.9728,39.9141,47.6182,40.4448Q47.2636,40.9755,46.8834,41.4882Q46.5032,42.0008,46.0983,42.4942Q45.6934,42.9876,45.2647,43.4605Q44.8361,43.9334,44.3848,44.3848Q43.9334,44.8361,43.4605,45.2647Q42.9876,45.6934,42.4942,46.0983Q42.0008,46.5032,41.4882,46.8834Q40.9755,47.2636,40.4448,47.6182Q39.9141,47.9728,39.3667,48.3009Q38.8192,48.6291,38.2563,48.9299Q37.6934,49.2308,37.1164,49.5037Q36.5394,49.7766,35.9498,50.0209Q35.3601,50.2651,34.7591,50.4801Q34.1582,50.6952,33.5474,50.8804Q32.9366,51.0657,32.3175,51.2208Q31.6983,51.3759,31.0723,51.5004Q30.4463,51.6249,29.815,51.7186Q29.1836,51.8122,28.5484,51.8748Q27.9133,51.9374,27.2758,51.9687Q26.6383,52,26,52Q25.2753,52,24.5517,51.9596Q23.828,51.9193,23.1078,51.8386Q22.3876,51.758,21.6729,51.6374Q20.9583,51.5168,20.2515,51.3566Q19.5447,51.1963,18.8479,50.997Q18.1512,50.7976,17.4666,50.5597Q16.782,50.3219,16.1117,50.0462Q15.4414,49.7706,14.7875,49.4581Q14.1337,49.1455,13.4982,48.797Q12.8628,48.4486,12.2477,48.0652Q11.6326,47.6819,11.0399,47.2649Q10.4471,46.8479,9.87855,46.3985Q9.30995,45.9491,8.76727,45.4688Q8.22459,44.9884,7.70951,44.4786Q7.19443,43.9687,6.70855,43.431Q6.22267,42.8933,5.7675,42.3293L6.54567,41.7012Q10.1053,46.1117,15.2188,48.5558Q20.3324,51,26,51Q30.7686,51,35.2024,49.2447Q40.0165,47.3388,43.6777,43.6777Q47.3388,40.0165,49.2447,35.2024Q51,30.7686,51,26Q51,21.3056,49.2971,16.9311Q47.5942,12.5565,44.4204,9.09762L45.1572,8.42153ZM38.9261,3.44084L38.429,4.3085Q32.6548,1,26,1Q21.2314,1,16.7976,2.75529Q11.9835,4.66116,8.32233,8.32233Q4.66116,11.9835,2.75529,16.7976Q1,21.2314,1,26Q1,30.6936,2.70241,35.0676L1.77051,35.4304Q0.892919,33.1756,0.44646,30.7976Q-9.48959e-16,28.4196,0,26Q0,25.3617,0.0313181,24.7242Q0.0626363,24.0867,0.125197,23.4516Q0.187758,22.8164,0.281411,22.185Q0.375064,21.5536,0.499583,20.9276Q0.624102,20.3016,0.779187,19.6825Q0.934273,19.0634,1.11955,18.4526Q1.30483,17.8418,1.51985,17.2409Q1.73488,16.6399,1.97913,16.0502Q2.22338,15.4605,2.49628,14.8836Q2.76917,14.3066,3.07005,13.7437Q3.37092,13.1808,3.69906,12.6333Q4.02719,12.0859,4.38179,11.5552Q4.73639,11.0245,5.1166,10.5118Q5.49682,9.99916,5.90173,9.50577Q6.30664,9.01239,6.73527,8.53947Q7.1639,8.06654,7.61522,7.61522Q8.06654,7.1639,8.53947,6.73527Q9.01239,6.30664,9.50577,5.90173Q9.99916,5.49682,10.5118,5.1166Q11.0245,4.73639,11.5552,4.38179Q12.0859,4.02719,12.6333,3.69906Q13.1808,3.37092,13.7437,3.07005Q14.3066,2.76917,14.8836,2.49628Q15.4605,2.22338,16.0502,1.97913Q16.6399,1.73488,17.2409,1.51985Q17.8418,1.30483,18.4526,1.11955Q19.0634,0.934273,19.6825,0.779187Q20.3016,0.624102,20.9276,0.499583Q21.5536,0.375064,22.185,0.281411Q22.8164,0.187758,23.4516,0.125197Q24.0867,0.0626363,24.7242,0.0313181Q25.3617,0,26,0Q27.6934,0,29.3726,0.219661Q31.0517,0.439322,32.6881,0.874931Q34.3246,1.31054,35.8907,1.95474Q37.4568,2.59894,38.9261,3.44084Z" fill-rule="evenodd" fill="#FFFFFF" fill-opacity="0.5"/></g><g style="mix-blend-mode:passthrough"><ellipse cx="26" cy="26" rx="18" ry="18" fill="#FFFFFF" fill-opacity="0.10000000149011612"/></g><g style="mix-blend-mode:passthrough"><ellipse cx="26" cy="26" rx="12" ry="12" fill="#00A3EE" fill-opacity="1"/></g><g style="mix-blend-mode:passthrough"><path d="M26,4L27.73205,7L24.267949,7L26,4Z" fill="#00DDFF" fill-opacity="1"/></g><g style="mix-blend-mode:passthrough" transform="matrix(1,0,0,-1,0,95.3330078125)"><path d="M26,47.66650390625L27.73205,50.66650390625L24.267949,50.66650390625L26,47.66650390625Z" fill="#00DDFF" fill-opacity="1"/></g><g style="mix-blend-mode:passthrough" transform="matrix(0,1,-1,0,71.666748046875,-23.666748046875)"><path d="M49.666748046875,24L51.398798046875,27L47.934697046875,27L49.666748046875,24Z" fill="#00DDFF" fill-opacity="1"/></g><g style="mix-blend-mode:passthrough" transform="matrix(0,1,1,0,-20,20)"><path d="M6,24L7.73205,27L4.267949,27L6,24Z" fill="#00DDFF" fill-opacity="1"/></g><g clip-path="url(#master_svg0_3196_17467)"><g filter="url(#master_svg1_3196_17467/200_07311)"><path d="M32.6533740234375,27.09091L32.6666740234375,27.09091L32.6533740234375,27.09091ZM21.5667040234375,26.36364C22.3600440234375,26.36364,22.5133740234375,27.09091,23.7867040234375,27.09091C25.0867040234375,27.09091,25.1800440234375,26.36364,26.0067040234375,26.36364C26.8000440234375,26.36364,26.9533740234375,27.09091,28.2267040234375,27.09091C29.5266740234375,27.09091,29.6200740234375,26.36364,30.446674023437502,26.36364C31.2400740234375,26.36364,31.3800740234375,27.07636,32.6533740234375,27.09091L32.6533740234375,25.63636C31.860074023437498,25.63636,31.7066740234375,24.90909,30.4333740234375,24.90909C29.1333740234375,24.90909,29.040044023437503,25.63636,28.213374023437503,25.63636C27.420044023437498,25.63636,27.266704023437498,24.90909,25.9933740234375,24.90909C24.6933740234375,24.90909,24.6000440234375,25.63636,23.7733740234375,25.63636C22.9800440234375,25.63636,22.8267040234375,24.90909,21.5533740234375,24.90909C20.2533740234375,24.90909,20.1600410234375,25.63636,19.3333740234375,25.63636L19.3333740234375,27.09091C20.6000440234375,27.09091,20.7800440234375,26.36364,21.5667040234375,26.36364ZM30.446674023437502,28.81824C29.1467040234375,28.81824,29.0533740234375,29.54541,28.2267040234375,29.54541C27.4333740234375,29.54541,27.2800340234375,28.81824,26.0067040234375,28.81824C24.7067040234375,28.81824,24.6067040234375,29.54541,23.7800340234375,29.54541C22.9533740234375,29.54541,22.8600440234375,28.81824,21.5600440234375,28.81824C20.2600430234375,28.81824,20.1600410234375,29.54541,19.3333740234375,29.54541L19.3333740234375,31C20.6333740234375,31,20.7400440234375,30.27271,21.5600440234375,30.27271C22.3867140234375,30.27271,22.4800340234375,31,23.7800340234375,31C25.0800340234375,31,25.1800440234375,30.27271,26.0067040234375,30.27271C26.8000440234375,30.27271,26.9533740234375,31,28.2267040234375,31C29.520074023437502,31,29.6200740234375,30.27271,30.446674023437502,30.27271C31.2400740234375,30.27271,31.393374023437502,31,32.6666740234375,31L32.6666740234375,29.54541C31.840074023437502,29.54541,31.7466740234375,28.81824,30.446674023437502,28.81824ZM21.5667040234375,22.45459C22.3600340234375,22.45459,22.5133740234375,23.18176,23.7867040234375,23.18176C25.0867040234375,23.18176,25.1800440234375,22.45459,26.0067040234375,22.45459C26.8000440234375,22.45459,26.9533740234375,23.18176,28.2267040234375,23.18176C29.5266740234375,23.18176,29.6200740234375,22.45459,30.446674023437502,22.45459C31.2400740234375,22.45459,31.3800740234375,23.16722,32.6533740234375,23.18176L32.6533740234375,21.727295C31.860074023437498,21.727295,31.7066740234375,21,30.4333740234375,21C29.1333740234375,21,29.0400340234375,21.727295,28.213374023437503,21.727295C27.420034023437502,21.727295,27.266704023437498,21,25.9933740234375,21C24.6933740234375,21,24.6000440234375,21.727295,23.7733740234375,21.727295C22.9800440234375,21.727295,22.8267040234375,21,21.5533740234375,21C20.2533750234375,21,20.1600410234375,21.727295,19.3333740234375,21.727295L19.3333740234375,23.18176C20.6000440234375,23.18176,20.7800340234375,22.45459,21.5667040234375,22.45459Z" fill="#FFFFFF" fill-opacity="1"/></g></g></g></svg>