<svg xmlns="http://www.w3.org/2000/svg" xmlns:xlink="http://www.w3.org/1999/xlink" fill="none" version="1.1" width="18.74931526184082" height="31.49987030029297" viewBox="0 0 18.74931526184082 31.49987030029297"><defs><linearGradient x1="0.5" y1="0" x2="0.5" y2="1" id="master_svg0_324_04632"><stop offset="0%" stop-color="#D5FEFE" stop-opacity="1"/><stop offset="100%" stop-color="#A9F2FF" stop-opacity="1"/></linearGradient></defs><g><path d="M9.3756,31.4999C4.20828,31.4646,0.0303744,27.424,0,22.4323C0,18.6035,1.70825,16.0787,3.68612,13.155C5.8286,9.9886,8.25664,6.39923,9.0338,0.263513C9.08078,0.0791995,9.26641,-0.0338107,9.45172,0.0090852C9.58087,0.036343,9.68294,0.135273,9.71421,0.263513C10.4919,6.39904,12.9203,9.98859,15.0623,13.1548C17.0409,16.0786,18.7493,18.6033,18.7493,22.4321C18.7189,27.423,14.542,31.4637,9.3756,31.4999ZM13.9212,23.2509Q13.0816,23.6337,13.0848,24.0986C13.0904,25.2569,12.157,26.201,10.9987,26.2086C10.5371,26.2184,10.168,26.5953,10.168,27.057C10.168,27.5187,10.5371,27.8957,10.9987,27.9054C13.0853,27.8867,14.7648,26.186,14.7574,24.0993C14.7568,23.9853,14.7338,23.8725,14.6899,23.7673C14.5616,23.4556,14.2582,23.2518,13.9212,23.2509L13.9212,23.2509Z" fill="url(#master_svg0_324_04632)" fill-opacity="1"/></g></svg>