<svg id="图标_地图_2D" data-name="图标/地图/2D" xmlns="http://www.w3.org/2000/svg" xmlns:xlink="http://www.w3.org/1999/xlink" width="40" height="40" viewBox="0 0 40 40">
  <defs>
    <style>
      .cls-1 {
        fill: none;
      }

      .cls-2 {
        fill: #A9ECFF;
      }

      .cls-3 {
        filter: url(#路径_40950);
      }

      .cls-4 {
        filter: url(#路径_34157);
      }
    </style>
    <filter id="路径_34157" x="18.43" y="5.232" width="19.57" height="33.934" filterUnits="userSpaceOnUse">
      <feOffset dy="2" input="SourceAlpha"/>
      <feGaussianBlur stdDeviation="1" result="blur"/>
      <feFlood flood-color="#A9ECFF" flood-opacity="0.6"/>
      <feComposite operator="in" in2="blur"/>
      <feComposite in="SourceGraphic"/>
    </filter>
    <filter id="路径_40950" x="2.32" y="4.604" width="19.12" height="34.8" filterUnits="userSpaceOnUse">
      <feOffset dy="2" input="SourceAlpha"/>
      <feGaussianBlur stdDeviation="1" result="blur-2"/>
      <feFlood flood-color="#A9ECFF" flood-opacity="0.6"/>
      <feComposite operator="in" in2="blur-2"/>
      <feComposite in="SourceGraphic"/>
    </filter>
  </defs>
  <rect id="矩形_2522" data-name="矩形 2522" class="cls-1" width="40" height="40"/>
  <g class="cls-4" transform="matrix(1, 0, 0, 1, 0, 0)">
    <path id="路径_34157-2" data-name="路径 34157" class="cls-2" d="M4.159,16.973h6.866c4.5,0,6.7-2.434,6.7-6.9V-4.057c0-4.469-2.207-6.9-6.7-6.9H4.159Zm4.5-3.991V-6.97h2.289c1.431,0,2.289.718,2.289,2.714V10.269c0,2-.858,2.714-2.289,2.714Z" transform="translate(17.27 17.19)"/>
  </g>
  <g class="cls-3" transform="matrix(1, 0, 0, 1, 0, 0)">
    <path id="路径_40950-2" data-name="路径 40950" class="cls-2" d="M7.88.4c4.32,0,6.56-2.44,6.56-6.92V-9c0-2.84-.88-4.88-3.24-5.76v-.08c2.16-.8,3.12-2.64,3.12-5.64v-1c0-4.48-2.24-6.92-6.44-6.92s-6.44,2.48-6.44,6.96v1.48H5.6V-21.8c0-1.84.84-2.6,2.12-2.6s2.2.8,2.2,2.8v2.04c0,2.24-1,2.96-2.64,2.96H5.68v4H7.16c2,0,2.88.96,2.88,3.56v2.28c0,2.48-.88,3.16-2.28,3.16S5.48-4.36,5.48-6.36V-8.84H1.32v2.28C1.32-2.08,3.56.4,7.88.4Z" transform="translate(4 34)"/>
  </g>
</svg>
