<svg xmlns="http://www.w3.org/2000/svg" xmlns:xlink="http://www.w3.org/1999/xlink" fill="none" version="1.1" width="20" height="20" viewBox="0 0 20 20"><defs><clipPath id="master_svg0_1738_09328"><rect x="0" y="0" width="20" height="20" rx="0"/></clipPath></defs><g clip-path="url(#master_svg0_1738_09328)"><g><path d="M10.000078046875,1.666748046875C5.397708046875,1.666748046875,1.666748046875,5.397708046875,1.666748046875,10.000078046875C1.666748046875,14.602448046875,5.397708046875,18.333448046875,10.000078046875,18.333448046875C14.602448046875,18.333448046875,18.333448046875,14.602448046875,18.333448046875,10.000078046875C18.331748046875,5.398398046875,14.601748046875,1.668413996875,10.000078046875,1.666748046875ZM9.166748046875,16.608448046875C5.833548046875,16.192848046875,3.332148046875,13.359048046875,3.333418046875,10.000078046875C3.3361980468750003,9.497908046875,3.3948980468750003,8.997598046875,3.5084180468749997,8.508418046875L7.500078046875,12.500048046875L7.500078046875,13.333448046875C7.502768046875,14.252748046875,8.247388046874999,14.997348046875,9.166748046875,15.000048046875L9.166748046875,16.608448046875ZM14.916748046875,14.491748046875C14.699848046875,13.800348046875,14.057948046875,13.330848046875,13.333448046875,13.333448046875L12.500048046875,13.333448046875L12.500048046875,10.833418046875C12.498748046875,10.373748046875,12.126448046875,10.001458046875,11.666748046875,10.000078046875L6.666748046875,10.000078046875L6.666748046875,8.333418046875L8.333418046875,8.333418046875C8.793078046875,8.332038046874999,9.165378046875,7.959748046875,9.166748046875,7.500078046875L9.166748046875,5.833418046875L10.833418046875,5.833418046875C11.752748046875,5.830728046875,12.497348046875,5.086108046875,12.500048046875,4.166748046875L12.500048046875,3.825078046875C16.809848046875,5.5608780468750005,18.057548046875,11.067948046875,14.916748046875,14.491748046875Z" fill="#A9ECFF" fill-opacity="1"/></g></g></svg>