<svg xmlns="http://www.w3.org/2000/svg" xmlns:xlink="http://www.w3.org/1999/xlink" fill="none" version="1.1" width="20" height="20" viewBox="0 0 20 20"><defs><clipPath id="master_svg0_1738_09323"><rect x="0" y="0" width="20" height="20" rx="0"/></clipPath></defs><g clip-path="url(#master_svg0_1738_09323)"><g><path d="M8.362311953125001,13.2271498828125C8.368541953125,12.6300398828125,7.888431953125,12.1415198828125,7.291311953125,12.1373798828125C6.694191953125,12.1332398828125,6.207351953125,12.6150498828125,6.205291953125,13.2121798828125C6.203211953125,13.8093298828125,6.686721953125,14.2944298828125,7.283871953125,14.2944298828125C7.876391953125,14.2975298828125,8.359211953125001,13.8196298828125,8.362311953125001,13.2271498828125ZM3.541581953125,10.2080798828125L2.083251953125,10.2080798828125L2.083251953125,16.6664298828125L3.541581953125,16.6664298828125L3.541581953125,14.1664298828125L5.937421953125,14.1664298828125C5.5906519531250005,13.5710298828125,5.637631953125,12.6899598828125,6.108881953125,12.1872498828125L3.541581953125,12.1872498828125L3.541581953125,10.2080798828125ZM9.231061953125,10.2119398828125L7.917831953125,11.7772498828125C8.291751953125,11.9368998828125,8.590391953125,12.2335698828125,8.752521953125001,12.6064098828125L10.085851953125,11.0162098828125L13.668451953125,14.3842298828125C13.895451953125,14.5973298828125,14.251551953125,14.5880298828125,14.467151953125,14.3634298828125L17.029651953125,11.6940198828125C17.244051953125002,11.4707898828125,17.234751953125,11.1153298828125,17.008751953125,10.9037098828125L9.122001953125,3.4870398828124998C8.895051953125,3.2739678828125,8.538891953124999,3.2832586828125,8.323351953125,3.5078738828125L5.760851953125,6.1772498828125C5.546201953125,6.4002798828125,5.555241953125,6.755739882812501,5.780961953125,6.9675598828125L9.231061953125,10.2119398828125L9.231061953125,10.2119398828125ZM17.752451953125,12.8660998828125L17.334351953125,12.0931898828125L14.810151953125,14.7362298828125L15.613551953125,15.1063298828125C15.939951953125,15.2604298828125,16.226751953125,15.3181298828125,16.451751953124997,15.0826298828125L17.775951953125002,13.6959298828125C18.000951953125,13.4597298828125,17.928051953125,13.1938098828125,17.752451953125,12.8660998828125Z" fill="#A9ECFF" fill-opacity="1"/></g></g></svg>