<svg xmlns="http://www.w3.org/2000/svg" xmlns:xlink="http://www.w3.org/1999/xlink" fill="none" version="1.1" width="20" height="20" viewBox="0 0 20 20"><defs><clipPath id="master_svg0_1738_09322"><rect x="0" y="0" width="20" height="20" rx="0"/></clipPath></defs><g clip-path="url(#master_svg0_1738_09322)"><g><path d="M2.5,17.083448046875L8.99865,17.083448046875L8.99865,15.088148046875L4.72781,15.088148046875L4.72781,14.788848046875C4.72781,13.811148046875,5.07521,13.112748046875,6.42396,11.715918046875C8.50812,9.561118046875,9.20302,8.084558046875,9.20302,6.428518046875C9.20302,4.193828046875,8.05854,2.916748046875,5.85125,2.916748046875C3.64396,2.916748046875,2.5,4.193828046875,2.5,6.428518046875L2.5,7.785288046875L4.625,7.785288046875L4.625,6.288828046875C4.625,5.291228046875,5.07458,4.912058046875,5.789899999999999,4.912058046875C6.50521,4.912058046875,6.95542,5.251228046875,6.95542,6.508308046874999C6.95542,7.805288046875,6.465,8.862478046875001,4.74833,10.638618046875C3.072604,12.354558046875,2.500416736,13.571748046875,2.500416736,15.567048046875L2.5,17.083448046875ZM10.71531,17.083448046875L14.1485,17.083448046875C16.3965,17.083448046875,17.5,15.866248046875,17.5,13.631548046875L17.5,6.568208046875C17.5,4.333418046875,16.3965,3.116331046875,14.1485,3.116331046875L10.71531,3.116331046875L10.71531,17.083448046875ZM12.9632,15.088148046875L12.9632,5.111538046874999L14.1076,5.111538046874999C14.8228,5.111538046874999,15.252,5.470708046875,15.252,6.468308046875L15.252,13.731348046875C15.252,14.728948046875,14.8228,15.088148046875,14.1076,15.088148046875L12.9632,15.088148046875Z" fill="#A9ECFF" fill-opacity="1"/></g></g></svg>