<svg xmlns="http://www.w3.org/2000/svg" xmlns:xlink="http://www.w3.org/1999/xlink" fill="none" version="1.1" width="64" height="64" viewBox="0 0 64 64"><defs><clipPath id="master_svg0_4190_62374"><rect x="0" y="0" width="64" height="64" rx="0"/></clipPath><filter id="master_svg1_4190_62388" filterUnits="objectBoundingBox" color-interpolation-filters="sRGB" x="-3.200000047683716" y="-2.400000035762787" width="10.206135272979736" height="10.203540086746216"><feFlood flood-opacity="0" result="BackgroundImageFix"/><feColorMatrix in="SourceAlpha" type="matrix" values="0 0 0 0 0 0 0 0 0 0 0 0 0 0 0 0 0 0 127 0"/><feOffset dy="0.800000011920929" dx="0"/><feGaussianBlur stdDeviation="0.800000011920929"/><feColorMatrix type="matrix" values="0 0 0 0 0 0 0 0 0 0 0 0 0 0 0 0 0 0 0.5 0"/><feBlend mode="normal" in2="BackgroundImageFix" result="effect1_dropShadow"/><feBlend mode="normal" in="SourceGraphic" in2="effect1_dropShadow" result="shape"/></filter><filter id="master_svg2_4190_62407" filterUnits="objectBoundingBox" color-interpolation-filters="sRGB" x="-3.200000047683716" y="-2.400000035762787" width="8.943778276443481" height="8.928083658218384"><feFlood flood-opacity="0" result="BackgroundImageFix"/><feColorMatrix in="SourceAlpha" type="matrix" values="0 0 0 0 0 0 0 0 0 0 0 0 0 0 0 0 0 0 127 0"/><feOffset dy="0.800000011920929" dx="0"/><feGaussianBlur stdDeviation="0.800000011920929"/><feColorMatrix type="matrix" values="0 0 0 0 0 0 0 0 0 0 0 0 0 0 0 0 0 0 0.30000001192092896 0"/><feBlend mode="normal" in2="BackgroundImageFix" result="effect1_dropShadow"/><feBlend mode="normal" in="SourceGraphic" in2="effect1_dropShadow" result="shape"/></filter><filter id="master_svg3_4190_62379" filterUnits="objectBoundingBox" color-interpolation-filters="sRGB" x="-3.200000047683716" y="-2.400000035762787" width="8.943778276443481" height="8.928083658218384"><feFlood flood-opacity="0" result="BackgroundImageFix"/><feColorMatrix in="SourceAlpha" type="matrix" values="0 0 0 0 0 0 0 0 0 0 0 0 0 0 0 0 0 0 127 0"/><feOffset dy="0.800000011920929" dx="0"/><feGaussianBlur stdDeviation="0.800000011920929"/><feColorMatrix type="matrix" values="0 0 0 0 0 0 0 0 0 0 0 0 0 0 0 0 0 0 0.30000001192092896 0"/><feBlend mode="normal" in2="BackgroundImageFix" result="effect1_dropShadow"/><feBlend mode="normal" in="SourceGraphic" in2="effect1_dropShadow" result="shape"/></filter><filter id="master_svg4_4190_62421" filterUnits="objectBoundingBox" color-interpolation-filters="sRGB" x="-3.200000047683716" y="-2.400000035762787" width="10.206135272979736" height="10.203540086746216"><feFlood flood-opacity="0" result="BackgroundImageFix"/><feColorMatrix in="SourceAlpha" type="matrix" values="0 0 0 0 0 0 0 0 0 0 0 0 0 0 0 0 0 0 127 0"/><feOffset dy="0.800000011920929" dx="0"/><feGaussianBlur stdDeviation="0.800000011920929"/><feColorMatrix type="matrix" values="0 0 0 0 0 0 0 0 0 0 0 0 0 0 0 0 0 0 0.5 0"/><feBlend mode="normal" in2="BackgroundImageFix" result="effect1_dropShadow"/><feBlend mode="normal" in="SourceGraphic" in2="effect1_dropShadow" result="shape"/></filter><filter id="master_svg5_4190_62383" filterUnits="objectBoundingBox" color-interpolation-filters="sRGB" x="-3.200000047683716" y="-2.400000035762787" width="10.206135272979736" height="10.203540086746216"><feFlood flood-opacity="0" result="BackgroundImageFix"/><feColorMatrix in="SourceAlpha" type="matrix" values="0 0 0 0 0 0 0 0 0 0 0 0 0 0 0 0 0 0 127 0"/><feOffset dy="0.800000011920929" dx="0"/><feGaussianBlur stdDeviation="0.800000011920929"/><feColorMatrix type="matrix" values="0 0 0 0 0 0 0 0 0 0 0 0 0 0 0 0 0 0 0.5 0"/><feBlend mode="normal" in2="BackgroundImageFix" result="effect1_dropShadow"/><feBlend mode="normal" in="SourceGraphic" in2="effect1_dropShadow" result="shape"/></filter><filter id="master_svg6_4190_62382" filterUnits="objectBoundingBox" color-interpolation-filters="sRGB" x="-3.200000047683716" y="-2.400000035762787" width="8.943778276443481" height="8.928083658218384"><feFlood flood-opacity="0" result="BackgroundImageFix"/><feColorMatrix in="SourceAlpha" type="matrix" values="0 0 0 0 0 0 0 0 0 0 0 0 0 0 0 0 0 0 127 0"/><feOffset dy="0.800000011920929" dx="0"/><feGaussianBlur stdDeviation="0.800000011920929"/><feColorMatrix type="matrix" values="0 0 0 0 0 0 0 0 0 0 0 0 0 0 0 0 0 0 0.30000001192092896 0"/><feBlend mode="normal" in2="BackgroundImageFix" result="effect1_dropShadow"/><feBlend mode="normal" in="SourceGraphic" in2="effect1_dropShadow" result="shape"/></filter><filter id="master_svg7_4190_62376" filterUnits="objectBoundingBox" color-interpolation-filters="sRGB" x="-8" y="-8" width="36" height="38.00000190734863"><feFlood flood-opacity="0" result="BackgroundImageFix"/><feColorMatrix in="SourceAlpha" type="matrix" values="0 0 0 0 0 0 0 0 0 0 0 0 0 0 0 0 0 0 127 0"/><feOffset dy="0" dx="0"/><feGaussianBlur stdDeviation="2"/><feColorMatrix type="matrix" values="0 0 0 0 0.0117647061124444 0 0 0 0 0.0784313753247261 0 0 0 0 0.15294118225574493 0 0 0 1 0"/><feBlend mode="normal" in2="BackgroundImageFix" result="effect1_dropShadow"/><feBlend mode="normal" in="SourceGraphic" in2="effect1_dropShadow" result="shape"/></filter></defs><g style="mix-blend-mode:passthrough" clip-path="url(#master_svg0_4190_62374)"><g style="mix-blend-mode:passthrough"><g style="mix-blend-mode:passthrough"><path d="M0.712890625,26.8634736328125C0.785051225,26.8789236328125,0.858889625,26.8960836328125,0.932728625,26.9098136328125C2.146030625,27.1775836328125,3.361020625,27.4419236328125,4.577680625,27.7079736328125C4.748850625,27.7457336328125,4.921700625,27.7834936328125,5.092870625,27.8212636328125C5.101280625,27.8229036328125,5.108640625,27.8251236328125,5.115080625,27.8270736328125C5.135640625,27.8332936328125,5.146900625,27.836693632812498,5.153290625,27.8092436328125C5.205310625,27.5740936328125,5.260690625,27.3389336328125,5.309360625,27.103773632812498C5.374800625,26.7879436328125,5.463740625,26.4755536328125,5.551010625,26.164863632812498C5.646660625,25.8198536328125,5.735610625,25.473133632812498,5.851400625,25.1332736328125C6.037670625,24.5719836328125,6.222270625,24.0141336328125,6.435400625,23.4648636328125C6.291080625,23.4047836328125,6.145080625,23.3464236328125,6.000750625,23.2897836328125C4.836120625,22.8211836328125,3.671480625,22.3525896328125,2.5051606250000003,21.8839936328125C2.434680625,21.8565301328125,2.362520625,21.8256336328125,2.2920306249999998,21.7981701328125C2.289110625,21.7971728328125,2.282360625,21.7937126328125,2.274010625,21.7894310328125C2.2536106250000003,21.7789750328125,2.223660625,21.7636202928125,2.2165206250000002,21.7672736898125C2.2014106250000003,21.7724231028125,2.179600625,21.8616795328125,2.174560625,21.8754116328125C2.149390625,21.9354876328125,2.129250625,21.9972806328125,2.104080625,22.0573566328125C2.052060625,22.1912416328125,2.000030625,22.3268426328125,1.949690625,22.4641606328125C1.835580625,22.7817036328125,1.731530625,23.1078336328125,1.6274846250000001,23.4288136328125C1.2582906249999999,24.5582536328125,0.973004625,25.7031336328125,0.712890625,26.8634736328125Z" fill="#05B8FF" fill-opacity="1"/></g><g style="opacity:0.5;mix-blend-mode:passthrough"><path d="M2.8253326416015625,20.2889711328125C3.5989616416015626,20.6460011328125,4.3742726416015625,21.0030311328125,5.149572641601562,21.3600511328125C5.681552641601563,21.607221132812498,6.213522641601562,21.8509611328125,6.743822641601563,22.0964211328125C6.802562641601563,22.1221611328125,6.859612641601562,22.1496311328125,6.916672641601562,22.1770911328125C6.938902641601563,22.1863511328125,6.948612641601563,22.1919011328125,6.955512641601563,22.1894711328125C6.962662641601563,22.1869411328125,6.966792641601563,22.1758211328125,6.978762641601563,22.1513411328125C7.220422641601562,21.6020711328125,7.485562641601563,21.0631011328125,7.755752641601562,20.5275611328125C8.005792641601563,20.0297911328125,8.284372641601562,19.5440311328125,8.569652641601563,19.0685711328125C8.719012641601562,18.8213911328125,8.875082641601562,18.5793711328125,9.029472641601561,18.3339211328125C9.033512641601561,18.3275211328125,9.040942641601562,18.3182411328125,9.049662641601563,18.3073611328125C9.080702641601562,18.2685811328125,9.128042641601564,18.2094611328125,9.096592641601562,18.1880211328125C8.732432641601562,17.9425611328125,8.368272641601562,17.6936711328125,8.004112641601562,17.4465011328125C7.114692641601563,16.8405911328125,6.2252726416015625,16.2381081328125,5.3375326416015625,15.6339111328125C5.156292641601563,15.9239941328125,4.970012641601563,16.2123611328125,4.790452641601562,16.5041611328125C4.513552641601563,16.9504411328125,4.265192641601562,17.4121711328125,4.008432641601562,17.8704711328125C3.5670766416015622,18.6497511328125,3.1894916416015624,19.4685011328125,2.8253326416015625,20.2889711328125Z" fill="#05B8FF" fill-opacity="1"/></g><g style="mix-blend-mode:passthrough"><path d="M6.2357635498046875,14.32112318359375C6.593210549804687,14.59061318359375,6.950657549804688,14.86009318359375,7.3097835498046875,15.131293183593751C8.167323549804687,15.778403183593749,9.026533549804688,16.42723318359375,9.885753549804686,17.07434318359375C10.327103549804686,16.44096318359375,10.822163549804689,15.855643183593749,11.310503549804688,15.26175318359375C11.778703549804687,14.693603183593751,12.287183549804688,14.14604318359375,12.814133549804687,13.63453318359375C12.720153549804689,13.53669318359375,12.627853549804687,13.43886318359375,12.535553549804687,13.34273318359375C11.657883549804687,12.42614318359375,10.781883549804688,11.506113183593751,9.907563549804689,10.58952018359375C9.820303549804688,10.49854718359375,9.734713549804688,10.41100718359375,9.647453549804688,10.32003431859375C9.630673549804687,10.30115318359375,8.727823549804688,11.27439118359375,8.643913549804687,11.36536318359375C7.7847035498046875,12.29225318359375,6.9657605498046875,13.28266318359375,6.2357635498046875,14.32112318359375Z" fill="#05B8FF" fill-opacity="1"/></g><g style="mix-blend-mode:passthrough"><path d="M12.668595500195313,20.46756919921875C12.656252200195313,20.48740919921875,12.649930580195312,20.494459199218753,12.651090832195312,20.499919199218752C12.652138990195313,20.50484919921875,12.659293200195313,20.508479199218748,12.673630000195313,20.519069199218748C12.755859200195312,20.57398919921875,12.836411200195313,20.63063919921875,12.918640200195313,20.68727919921875C13.373420200195312,20.997959199218748,13.824845200195313,21.30692919921875,14.279625200195312,21.617609199218748C14.788105200195313,20.79884919921875,15.403985200195311,20.04360919921875,16.023225200195313,19.31066919921875C16.340395200195314,18.93304919921875,16.672675200195314,18.55885919921875,17.028445200195314,18.21727919921875C17.50000520019531,17.76069919921875,17.964855200195313,17.28866919921875,18.476685200195313,16.88014919921875C18.88447520019531,16.55401919921875,19.290595200195312,16.23132919921875,19.71013520019531,15.924079199218749C20.258885200195312,15.52241919921875,20.827785200195315,15.15166919921875,21.415135200195312,14.81180919921875C21.967245200195315,14.489109199218749,22.527755200195312,14.18185919921875,23.106755200195312,13.91580919921875C23.117855200195315,13.91070919921875,23.135455200195313,13.90498919921875,23.155655200195312,13.89840919921875C23.223955200195313,13.87619919921875,23.32205520019531,13.84426919921875,23.30135520019531,13.79393919921875L23.177155200195312,13.517589199218751C22.957355200195313,13.00779919921875,22.73415520019531,12.49800419921875,22.51097520019531,11.98992919921875C21.35472520019531,12.52546719921875,20.250495200195314,13.15025919921875,19.18654520019531,13.85744919921875C18.193075200195313,14.51485919921875,17.261705200195312,15.27524919921875,16.380675200195313,16.08198919921875C15.524815200195313,16.864699199218748,14.724335200195313,17.72979919921875,13.999375200195313,18.63781919921875C13.605005200195313,19.12872919921875,13.242524200195312,19.64194919921875,12.881721200195312,20.158609199218752C12.809560200195312,20.25987919921875,12.734043500195313,20.36114919921875,12.668595500195313,20.46756919921875Z" fill="#05B8FF" fill-opacity="1"/></g><g style="mix-blend-mode:passthrough"><path d="M29.659042358398438,7.94384006640625C29.67078945839844,8.08459006640625,29.68421465839844,8.22534106640625,29.697639958398437,8.36609106640625C29.727846658398438,8.71796706640625,29.76140935839844,9.07156306640625,29.79161635839844,9.42343306640625C29.80336335839844,9.55732306640625,29.816789358398438,9.68949306640625,29.828536358398438,9.82165306640625C29.829327358398437,9.83097306640625,29.829092358398437,9.84266306640625,29.828843358398437,9.85506306640625C29.828035358398438,9.895223066406249,29.827080358398437,9.94271306640625,29.860421358398437,9.94009306640625C31.016672358398438,9.85083306640625,32.18466235839844,9.785613066406249,33.342592358398434,9.87830306640625C33.689972358398435,9.904043066406249,34.03902235839844,9.92636306640625,34.386402358398435,9.95897306640625C34.720352358398436,9.98987306640625,35.05263235839844,10.048233066406251,35.386582358398435,10.08771306640625C35.733962358398436,10.12719306640625,36.07966235839844,10.20614306640625,36.42368235839844,10.26794306640625C36.76938235839844,10.32973306640625,37.11172235839844,10.40525306640625,37.45239235839844,10.48764306640625C38.67409235839844,10.786313066406251,39.879042358398436,11.18625306640625,41.038642358398434,11.68746306640625C41.62424235839843,11.94664306640625,42.20154235839844,12.22814306640625,42.77044235839844,12.52681306640625C42.78144235839844,12.53219306640625,42.796342358398434,12.54238306640625,42.81314235839844,12.553863066406251C42.866142358398434,12.58996306640625,42.93794235839844,12.63892306640625,42.96344235839844,12.59204306640625C43.008742358398436,12.50278306640625,43.05744235839844,12.413523066406249,43.10274235839844,12.32255306640625C43.357842358398436,11.82992306640625,43.61454235839844,11.339013066406249,43.86964235839844,10.84639306640625C42.89804235839844,10.33659306640625,41.91294235839844,9.85942306640625,40.889242358398434,9.46806306640625C39.642382358398436,8.99260306640625,38.36195235839844,8.60811306640625,37.05634235839844,8.34549306640625C35.688652358398436,8.07085806640625,34.29410235839844,7.88719616640625,32.89788235839844,7.85286676640625C32.245082358398435,7.83570207640625,31.597312358398437,7.83570207640625,30.944512358398438,7.85629966640625C30.514901358398436,7.87003146640625,30.086971358398436,7.90951026640625,29.659042358398438,7.94384006640625Z" fill="#05B8FF" fill-opacity="1"/></g><g style="mix-blend-mode:passthrough" transform="matrix(-0.8482104539871216,-0.5296593308448792,0.5301792025566101,-0.8478856086730957,15.200722064868387,112.06329680260842)"><path d="M23.674392700195312,53.9617423671875C23.68613750019531,54.1025203671875,23.69956020019531,54.2432973671875,23.712982900195314,54.3840753671875C23.743183900195312,54.7360183671875,23.77674070019531,55.0896763671875,23.806941700195313,55.4416263671875C23.81868670019531,55.5755363671875,23.832108700195313,55.7077263671875,23.84385370019531,55.8399163671875C23.84464570019531,55.8492363671875,23.844409700195314,55.8609363671875,23.844160700195314,55.8733363671875C23.84335270019531,55.9135063671875,23.842397700195313,55.9610063671875,23.87573270019531,55.9583763671875C25.031762700195312,55.8691063671875,26.199532700195313,55.8038663671875,27.35723270019531,55.8965763671875C27.704552700195315,55.9223263671875,28.053532700195312,55.9446463671875,28.400852700195312,55.9772663671875C28.734742700195312,56.0081663671875,29.066952700195312,56.0665363671875,29.400832700195313,56.106026367187496C29.748152700195313,56.1455063671875,30.093782700195312,56.2244863671875,30.43774270019531,56.2862863671875C30.78337270019531,56.3480963671875,31.125652700195314,56.4236363671875,31.466252700195312,56.5060363671875C32.68771270019531,56.8047563671875,33.892392700195316,57.2047763671875,35.051792700195314,57.7060763671875C35.63739270019531,57.9653163671875,36.214492700195315,58.2468663671875,36.78329270019531,58.5455963671875C36.79419270019531,58.5509763671875,36.80919270019531,58.5611663671875,36.825992700195314,58.5726463671875C36.87899270019531,58.608756367187496,36.950792700195315,58.6577263671875,36.976292700195316,58.6108363671875C37.02159270019531,58.5215563671875,37.070192700195314,58.4322863671875,37.11549270019531,58.341296367187496C37.37059270019531,57.8485763671875,37.62729270019531,57.3575663671875,37.882292700195315,56.864846367187496C36.910792700195316,56.3549563671875,35.92589270019531,55.8776863671875,34.90249270019531,55.4862563671875C33.655822700195316,55.0107063671875,32.37563270019531,54.6261433671875,31.070282700195314,54.3634733671875C29.70285270019531,54.0887853671875,28.308572700195313,53.9050884671875,26.91261270019531,53.8707524671875C26.259932700195314,53.8535844771875,25.61229270019531,53.8535844771875,24.95961270019531,53.8741860671875C24.530087700195313,53.8879204671875,24.102240700195313,53.9274067671875,23.674392700195312,53.9617423671875Z" fill="#05B8FF" fill-opacity="1"/></g><g style="opacity:0.5;mix-blend-mode:passthrough"><path d="M10.791580200195312,9.22709181640625C11.301739200195312,9.81756181640625,11.811900200195312,10.40631181640625,12.323740200195312,10.995061816406249C12.734880200195313,11.47224181640625,13.147710200195313,11.94770181640625,13.558860200195312,12.42144181640625C13.637730200195312,12.51413181640625,13.716600200195312,12.60510181640625,13.797150200195313,12.696081816406249C13.792120200195313,12.69093181640625,14.762090200195313,11.86187181640625,14.844320200195313,11.79665181640625C15.384690200195312,11.36066181640625,15.936800200195313,10.94700181640625,16.49731020019531,10.54019181640625C16.737280200195315,10.36511181640625,16.985650200195312,10.20720181640625,17.234020200195314,10.04757181640625C17.240920200195312,10.042271816406249,17.253940200195313,10.03549181640625,17.26901020019531,10.02765181640625C17.312510200195312,10.00500181640625,17.373110200195313,9.97346181640625,17.353160200195312,9.94286181640625C17.11990020019531,9.56352181640625,16.886640200195313,9.18590181640625,16.651700200195314,8.80656181640625C16.08280020019531,7.88481181640625,15.513910200195312,6.96135581640625,14.945010200195313,6.03961181640625C14.215020200195312,6.51850681640625,13.496760200195313,7.01456581640625,12.800330200195312,7.54324181640625C12.382470200195312,7.8779518164062505,11.951180200195312,8.20064181640625,11.548428200195312,8.55595181640625C11.296705200195312,8.77910181640625,11.043303200195313,9.00395181640625,10.791580200195312,9.22709181640625Z" fill="#05B8FF" fill-opacity="1"/></g><g style="mix-blend-mode:passthrough"><path d="M16.289901733398438,5.2159301171875C16.50806173339844,5.610720117187499,16.727899733398438,6.0072201171875,16.94605973339844,6.4037301171875C17.469641733398436,7.3529301171875,17.994901733398436,8.3038601171875,18.52017173339844,9.2547801171875C18.914531733398437,9.0230601171875,19.32233173339844,8.8102201171875,19.728441733398437,8.5973701171875C20.33761173339844,8.2763901171875,20.965241733398436,7.9794401171875,21.60294173339844,7.7236901171875C21.876481733398435,7.6138401171875,22.14834173339844,7.5039801171875,22.421881733398436,7.3958501171875C22.42950173339844,7.3927301171875,22.44162173339844,7.3893401171875,22.455621733398438,7.3854301171875C22.503301733398438,7.3721201171875,22.572841733398437,7.3527101171875,22.561161733398436,7.3168901171875C22.410131733398437,6.896350117187501,22.260771733398435,6.475820117187499,22.109741733398437,6.0552801171875L21.010551733398437,2.9793701171875C20.240281733398437,3.2883341171875,19.475041733398438,3.6041651171874998,18.72155173339844,3.9491751171875C17.89254173339844,4.3319501171875,17.080312733398436,4.7542001171875,16.289901733398438,5.2159301171875Z" fill="#05B8FF" fill-opacity="1"/></g><g style="opacity:0.5;mix-blend-mode:passthrough"><path d="M22.49609375,2.46683068359375C22.51790975,2.53549068359375,22.53804765,2.60586068359375,22.55986365,2.67624068359375C22.92905775,3.88635068359375,23.29657375,5.09989068359375,23.66409375,6.31000068359375L23.82519375,6.83696068359375C23.82661375,6.84240068359375,23.82765375,6.84831068359375,23.82868375,6.85415068359375C23.83254375,6.87595068359375,23.83625375,6.89694068359375,23.858753749999998,6.89017068359375C24.07523375,6.82666068359375,24.29507375,6.76315068359375,24.51323375,6.69964068359375C25.72318375,6.35807068359375,26.95159375,6.07142068359375,28.19678375,5.90835068359375C28.17832375,5.75559068359375,28.15650375,5.60282068359375,28.13469375,5.44834068359375C27.96519375,4.18158068359375,27.79235375,2.91140068359375,27.62117375,1.64292568359375C27.60439375,1.5330716835937501,27.58929375,1.42493468359375,27.57418375,1.31336381359375C27.57083375,1.28933328359375,25.99840375,1.57941668359375,25.86918375,1.60344668359375C24.72636375,1.8145726835937501,23.61038375,2.14070168359375,22.49609375,2.46683068359375Z" fill="#05B8FF" fill-opacity="1"/></g><g style="opacity:0.5;mix-blend-mode:passthrough"><path d="M29.048126220703125,1.139434C29.054838840703123,1.214958,29.061551420703125,1.292199,29.068264120703127,1.367724C29.182378220703125,2.63276,29.294815220703125,3.8978,29.410607220703124,5.16455C29.425711220703125,5.34307,29.440814220703125,5.5233,29.457596220703124,5.70353C29.458375220703125,5.71189,29.458340220703125,5.71924,29.458310220703126,5.72558C29.458211220703124,5.74652,29.458165220703126,5.75634,29.487802220703124,5.75502C29.721066220703126,5.73785,29.956008220703126,5.72241,30.190946220703125,5.70009C30.504766220703125,5.6692,30.823616220703126,5.66233,31.139106220703127,5.65546C31.230696220703123,5.65321,31.322406220703126,5.65037,31.414176220703126,5.64752C31.672116220703124,5.63953,31.930486220703123,5.63152,32.18795622070313,5.63658C32.76691622070312,5.65031,33.34420622070313,5.66405,33.91980622070312,5.70867C33.92987622070312,5.54904,33.94162622070313,5.39284,33.95169622070313,5.23321C34.03895622070313,3.95616,34.124546220703124,2.67739,34.210126220703124,1.400337C34.215166220703125,1.321379,34.22019622070312,1.245855,34.22690622070313,1.166897C34.22690622070313,1.1633149999999999,34.228106220703125,1.155309,34.229556220703124,1.145562C34.23297622070312,1.122615,34.23783622070312,1.0900185,34.23194622070312,1.08279C34.22334622070313,1.0710696,34.157296220703124,1.0731043,34.129786220703124,1.0739518C34.125066220703125,1.0740972,34.12147622070312,1.0742077,34.11950622070312,1.0742077L33.92819622070313,1.0587595C33.78723622070312,1.0484606,33.646266220703126,1.0364454,33.506986220703126,1.0330124C33.17470622070312,1.0244301,32.84411622070313,1.0158477,32.510156220703124,1.00726538C31.355586220703124,0.9763689,30.201016220703124,1.0484606,29.048126220703125,1.139434Z" fill="#05B8FF" fill-opacity="1"/></g><g style="opacity:0.5;mix-blend-mode:passthrough"><path d="M35.708154779296876,1.2198486328125C36.038751779296874,1.2627603328124999,36.37102877929688,1.3073885328125,36.70329877929687,1.3503006328125C37.230238779296876,1.4206756328125,37.753828779296875,1.5339626328125,38.27740877929688,1.6283686328125C38.806028779296874,1.7176246328125,39.32625877929688,1.8669576328125,39.848158779296874,1.9922596328125C40.17036877929687,2.0677846328125,40.48921877929688,2.1690556328125,40.808068779296875,2.2583086328124997C40.51438877929687,3.3087886328125,40.22070877929688,4.359268632812499,39.92871877929687,5.4063186328125C39.807888779296874,5.8371486328125,39.687058779296876,6.2679886328125,39.56790877929687,6.6988186328125C39.554488779296875,6.7468786328125,39.445408779296876,6.6867986328125,39.41183877929687,6.6765086328125C39.129908779296876,6.5941186328125,38.847978779296874,6.5134386328125,38.56101877929687,6.4464986328125C37.89143877929688,6.2851486328125,37.22016877929688,6.1443986328125,36.542198779296875,6.0225286328125C36.441508779296875,6.0036486328125,35.18792692929687,5.8182686328125,35.186248779296875,5.8251386328125C35.201352179296876,5.7032686328125,35.214777379296876,5.5813986328125,35.22820267929688,5.4612486328125C35.30036377929687,4.8312986328125,35.37084577929687,4.197918632812501,35.44300677929687,3.5679786328125L35.708154779296876,1.2198486328125Z" fill-rule="evenodd" fill="#05B8FF" fill-opacity="1"/></g><g style="opacity:0.5;mix-blend-mode:passthrough"><path d="M0,33.7306486328125L3.20024,33.7306486328125L4.51424,33.7306486328125C4.54948,33.7306486328125,4.53437,33.7632486328125,4.53605,33.7941486328125C4.54109,33.9555486328125,4.54444,34.1151486328125,4.5478,34.2748486328125C4.56458,34.9098486328125,4.59647,35.5398486328125,4.64513,36.1749486328125C4.83644,38.7359486328125,5.42715,41.2934486328125,6.31657,43.6947486328125C7.28487,46.3106486328125,8.64921,48.7789486328125,10.3274,50.9863486328125C11.1597,52.0814486328125,12.0794,53.1096486328125,13.0611,54.0691486328125C13.5595,54.5548486328125,14.0764,55.0286486328125,14.61,55.4749486328125C15.1638,55.9366486328125,15.7377,56.3674486328125,16.3201,56.7914486328125C18.3943,58.3019486328125,20.7269,59.4794486328125,23.1334,60.3205486328125C25.6707,61.2062486328125,28.3323,61.7039486328125,31.0106,61.8035486328125C33.7695,61.9048486328125,36.5452,61.5872486328125,39.2118,60.8457486328125C41.6937,60.1574486328125,44.0801,59.1018486328125,46.2751,57.7337486328125C48.4164,56.4000486328125,50.3765,54.7660486328125,52.0866,52.8933486328125C53.8033,51.0155486328125,55.265,48.9025486328125,56.4162,46.6196486328125C57.6245,44.2251486328125,58.4938,41.6504486328125,58.9871,39.0036486328125C59.5124,36.1852486328125,59.608,33.2758486328125,59.2791,30.4264486328125C58.9586,27.6560486328125,58.2437,24.9251486328125,57.1328,22.3762486328125C56.0252,19.8324486328125,54.5618,17.4602486328125,52.778,15.3593486328125C51.0276,13.2926486328125,48.9937,11.4920986328125,46.74,10.0227986328125C44.9259,8.8401486328125,42.9759,7.8686286328125,40.9403,7.1614486328125C41.2876,6.1298486328125,41.635,5.0965286328125,41.9807,4.0666486328125C42.1234,3.6426816328125,42.266,3.2187136328125,42.4086,2.7964617328125C42.4254,2.7432512328125,42.6436,2.8565382328125,42.6889,2.8719864328125C42.9574,2.9646756328125,43.2175,3.0676636328124998,43.4776,3.1706516328125C44.0885,3.4178236328125,44.6909,3.6718616328125,45.2867,3.9499286328125C47.772,5.1033986328125,50.0979,6.5950086328125,52.2141,8.3561086328125C54.2816,10.0760086328125,56.1275,12.0550986328125,57.7151,14.2435486328125C59.316,16.4544486328125,60.6451,18.8677486328125,61.6554,21.4132486328125C62.7009,24.0446486328125,63.4074,26.8167486328125,63.7514,29.6351486328125C64.1021,32.5085486328125,64.082,35.4299486328125,63.6893,38.2982486328125C63.3151,41.0497486328125,62.5952,43.7514486328125,61.5547,46.3158486328125C60.5377,48.8235486328125,59.1935,51.2180486328125,57.5926,53.3825486328125C56.8156,54.4330486328125,55.9832,55.4337486328125,55.0955,56.3846486328125C54.6457,56.8669486328125,54.1775,57.3269486328125,53.7043,57.7852486328125C53.2546,58.2212486328125,52.7813,58.6503486328125,52.2963,59.0434486328125L52.0463,59.2442486328125C52.0412,59.2494486328125,52.0295,59.2288486328125,52.0278,59.2271486328125L51.9003,59.0657486328125C51.7258,58.8443486328125,51.5529,58.6212486328125,51.3767,58.3997486328125C50.9656,57.8745486328125,50.5527,57.3510486328125,50.1399,56.8257486328125C50.1147,56.7948486328125,49.9402,56.5391486328125,49.9117,56.5631486328125C49.4854,56.9047486328125,49.0592,57.2394486328125,48.6195,57.5621486328125C47.7401,58.2023486328125,46.8306,58.7979486328125,45.8908,59.3335486328125C43.6605,60.6037486328125,41.2524,61.5529486328125,38.7721,62.1777486328125C38.0891,62.3493486328125,37.401,62.4815486328125,36.7079,62.6051486328125C36.03,62.7287486328125,35.3386,62.8231486328125,34.6489,62.8763486328125C33.9474,62.9329486328125,33.2476,62.9724486328125,32.5445,62.9930486328125C32.182,63.0033486328125,31.8212,63.0016486328125,31.4587,62.9930486328125C31.118,62.9844486328125,30.774,62.9861486328125,30.4333,62.9604486328125C29.3291,62.8763486328125,28.2333,62.7699486328125,27.1408,62.5776486328125C25.7647,62.3322486328125,24.3987,62.0026486328125,23.0746,61.5460486328125C20.6363,60.7067486328125,18.3103,59.5721486328125,16.1657,58.1148486328125C15.1219,57.4059486328125,14.1267,56.6266486328125,13.1836,55.7804486328125C12.801,55.4371486328125,12.4284,55.0801486328125,12.0609,54.7196486328125C11.9787,54.6407486328125,11.0406,53.6726486328125,11.049,53.6640486328125C10.2669,54.4107486328125,9.48325,55.1539486328125,8.70123,55.8988486328125C8.66096,55.9383486328125,8.62068,55.9761486328125,8.5804,56.0138486328125C8.5653,56.0293486328125,8.33372,55.7598486328125,8.30351,55.7255486328125C7.88229,55.2466486328125,7.46611,54.7591486328125,7.07678,54.2527486328125C6.33839,53.2915486328125,5.63356,52.3131486328125,4.99419,51.2815486328125C3.58286,49.0072486328125,2.43668,46.5647486328125,1.61271,44.0071486328125C0.832365,41.5903486328125,0.313815,39.0534486328125,0.122505,36.5113486328125C0.0788733,35.9191486328125,0.0369194,35.3304486328125,0.0251723,34.7365486328125L0,33.7306486328125Z" fill-rule="evenodd" fill="#05B8FF" fill-opacity="1"/></g><g style="opacity:0.5;mix-blend-mode:passthrough"><path d="M5.873524533203125,33.730520117187496C5.898697533203125,34.7243201171875,5.932260533203125,35.7147201171875,6.037984533203125,36.7034201171875C6.163845533203125,37.9066201171875,6.376966533203125,39.0979201171875,6.667296533203125,40.2702201171875C7.338556533203125,42.9754201171875,8.412576533203126,45.5655201171875,9.867536533203126,47.9274201171875C11.282216533203126,50.2240201171875,13.034206533203125,52.2958201171875,15.049676533203124,54.0638201171875C17.056746533203125,55.8214201171875,19.330646533203126,57.2530201171875,21.758946533203126,58.3172201171875C22.386546533203123,58.5918201171875,23.022546533203126,58.8373201171875,23.668646533203123,59.0604201171875C24.314746533203124,59.2853201171875,24.974246533203125,59.4998201171875,25.640546533203125,59.6560201171875C26.326846533203124,59.8174201171875,27.009846533203124,59.9650201171875,27.702946533203125,60.0903201171875C28.119146533203125,60.1658201171875,28.538646533203124,60.2173201171875,28.958246533203123,60.2705201171875C29.646246533203126,60.3615201171875,30.346046533203126,60.4147201171875,31.039146533203127,60.4336201171875C31.389846533203126,60.4422201171875,31.742246533203126,60.4627201171875,32.09134653320312,60.4559201171875C32.447146533203124,60.4473201171875,32.79954653320313,60.4370201171875,33.15364653320313,60.4284201171875C33.86854653320313,60.4095201171875,34.585046533203126,60.3340201171875,35.293246533203124,60.2396201171875C35.99304653320313,60.1486201171875,36.689446533203125,60.0302201171875,37.380846533203126,59.8843201171875C39.550746533203124,59.4294201171875,41.661846533203125,58.6690201171875,43.64374653320313,57.6598201171875C44.81004653320313,57.0676201171875,45.93274653320312,56.3793201171875,47.000046533203125,55.6137201171875C48.114346533203125,54.8138201171875,49.14804653320312,53.9213201171875,50.13824653320312,52.9652201171875C51.366646533203124,51.7774201171875,52.447346533203124,50.4351201171875,53.42734653320313,49.0276201171875C54.05834653320313,48.1213201171875,54.63734653320312,47.1584201171875,55.134046533203126,46.1663201171875C55.501546533203125,45.4316201171875,55.86234653320312,44.6918201171875,56.162746533203126,43.9229201171875C56.453146533203125,43.1831201171875,56.72664653320312,42.4364201171875,56.95994653320312,41.6760201171875C57.17474653320313,40.9740201171875,57.34924653320312,40.2582201171875,57.510346533203126,39.5407201171875C57.75874653320312,38.4267201171875,57.93994653320313,37.2835201171875,58.02384653320313,36.1455201171875C58.069146533203124,35.5568201171875,58.104446533203124,34.973220117187495,58.11954653320313,34.3844201171875C58.132946533203125,33.848920117187504,58.12624653320312,33.3202201171875,58.112846533203125,32.784720117187504C58.08254653320313,31.5866201171875,57.960046533203126,30.3799201171875,57.753646533203124,29.1990201171875C57.52884653320312,27.9099201171875,57.24184653320312,26.6329201171875,56.83234653320312,25.3936201171875C56.29364653320312,23.7646201171875,55.64424653320312,22.1683201171875,54.80514653320313,20.6767201171875C53.761346533203124,18.8212201171875,52.559746533203125,17.058420117187502,51.113246533203124,15.5084401171875C50.512446533203125,14.8613301171875,49.89484653320312,14.2313901171875,49.23534653320313,13.6443501171875C48.228446533203126,12.7517901171875,47.172946533203124,11.929600117187501,46.05194653320312,11.1949501171875C44.24624653320313,10.0157401171875,42.312946533203124,9.087130117187499,40.285746533203124,8.378230117187499C38.948246533203125,7.9147801171875,37.573846533203124,7.5852201171875,36.182646533203126,7.3483441171875C35.47614653320312,7.2299071171875,34.76464653320312,7.1440841171875,34.04974653320312,7.0908731171875C33.34494653320313,7.0393791171875,32.63004653320313,6.9861691171875,31.921846533203126,7.0050501171875C31.222046533203127,7.0222151171875,30.527246533203126,7.0462451171875,29.827546533203126,7.1011721171875C29.231746533203125,7.1492331171875,28.637646533203124,7.2316241171875,28.045346533203126,7.3071491171875C27.875846533203124,7.3294631171875,27.707946533203124,7.3689411171875,27.540146533203124,7.3981211171875C27.191146533203124,7.4616301171875,26.842046533203124,7.5199901171875005,26.498046533203127,7.6006601171875C26.160746533203124,7.6813401171875,25.821746533203125,7.7568601171875,25.486146533203126,7.8426901171875C25.153846533203126,7.9250801171875,24.826646533203125,8.0315001171875,24.499346533203123,8.1276201171875C23.192046533203126,8.5069601171875,21.920046533203124,9.033920117187499,20.698346533203125,9.6346801171875C19.525346533203127,10.2131301171875,18.392546533203124,10.8774001171875,17.315146533203126,11.6240701171875C15.111766533203125,13.1534401171875,13.141616533203125,15.0449901171875,11.491986533203125,17.1820201171875C10.657946533203125,18.261620117187498,9.904456533203124,19.406520117187497,9.241576533203125,20.6029201171875C8.577036533203124,21.7976201171875,8.031636533203125,23.0403201171875,7.5432865332031245,24.3191201171875C7.048236533203125,25.6167201171875,6.680716533203125,26.9813201171875,6.4054965332031255,28.3459201171875C6.192374533203125,29.4032201171875,6.046374533203125,30.4743201171875,5.965823533203125,31.5505201171875C5.917156533203125,32.1822201171875,5.895340533203125,32.808720117187505,5.880237533203125,33.4404201171875C5.878559533203125,33.5331201171875,5.875202533203125,33.6240201171875,5.873524533203125,33.7133201171875C5.873524533203125,33.747620117187495,5.806398533203125,33.730520117187496,5.777870533203125,33.730520117187496L5.326446533203125,33.730520117187496C5.349940733203125,32.7332201171875,5.385181933203125,31.7394201171875,5.489227533203125,30.7472201171875C5.611732533203125,29.5543201171875,5.818145533203125,28.3716201171875,6.100075533203125,27.2079201171875C6.757916533203125,24.4873201171875,7.813476533203125,21.8748201171875,9.251646533203125,19.487220117187498C10.651226533203126,17.1614201171875,12.386446533203124,15.0518601171875,14.386806533203124,13.244420117187499C16.360346533203124,11.4627201171875,18.590546533203124,9.9968601171875,20.983646533203125,8.8811501171875C22.245646533203125,8.2941201171875,23.542846533203125,7.8238101171875005,24.875246533203125,7.4376001171875C25.546546533203124,7.2402061171875,26.229546533203123,7.0685591171875,26.915946533203126,6.9449731171875C27.325346533203124,6.8711651171875,27.734846533203125,6.7853421171875,28.147646533203126,6.7321311171875C28.849146533203125,6.6394421171874995,29.545546533203126,6.5639171171875,30.250446533203124,6.5089903171875C30.961946533203125,6.4523468271875,31.683546533203124,6.4403315471875,32.39674653320313,6.4523468271875C33.81814653320313,6.4901091171875,35.22784653320312,6.6085451171875,36.63074653320312,6.8608661171875C38.814046533203125,7.2522211171875,40.93524653320313,7.9233601171875,42.955746533203126,8.8485401171875C45.35884653320313,9.9505101171875,47.57394653320313,11.433540117187501,49.56264653320312,13.1946401171875C51.06114653320312,14.5231901171875,52.43894653320312,16.0474101171875,53.58684653320312,17.698620117187502C54.57694653320313,19.1216201171875,55.483146533203126,20.6166201171875,56.187946533203124,22.2129201171875C56.59234653320313,23.1210201171875,56.95994653320312,24.0393201171875,57.27374653320312,24.9833201171875C57.470046533203124,25.5772201171875,57.637846533203124,26.1763201171875,57.80404653320313,26.7753201171875C57.986946533203124,27.4310201171875,58.11954653320313,28.1090201171875,58.23534653320313,28.7784201171875C58.34604653320312,29.4135201171875,58.43334653320313,30.0469201171875,58.51214653320312,30.6854201171875C58.57764653320312,31.2090201171875,58.60614653320312,31.7394201171875,58.643046533203126,32.264620117187505C58.668246533203124,32.621620117187504,58.66324653320312,32.9804201171875,58.67334653320312,33.3374201171875C58.678346533203126,33.5468201171875,58.68164653320313,33.7511201171875,58.676646533203126,33.9587201171875C58.66154653320312,34.569820117187504,58.643046533203126,35.1809201171875,58.59944653320313,35.7902201171875C58.55584653320312,36.3841201171875,58.48874653320313,36.9712201171875,58.416546533203125,37.5599201171875C58.25544653320313,38.8541201171875,57.95844653320312,40.1312201171875,57.60934653320312,41.3859201171875C57.166346533203125,42.9822201171875,56.562146533203126,44.5408201171875,55.823846533203124,46.0152201171875C55.06194653320313,47.5377201171875,54.18594653320312,49.0088201171875,53.15214653320312,50.3562201171875C52.52624653320313,51.1698201171875,51.87174653320312,51.9491201171875,51.173646533203126,52.6974201171875C50.36974653320313,53.5591201171875,49.49714653320312,54.3607201171875,48.58594653320313,55.1005201171875C47.55884653320312,55.9330201171875,46.47314653320313,56.6900201171875,45.340346533203125,57.3628201171875C44.395546533203124,57.9224201171875,43.41554653320313,58.3978201171875,42.42374653320312,58.8561201171875C42.111546533203125,59.0003201171875,41.78264653320313,59.1170201171875,41.465546533203124,59.2441201171875C40.81434653320313,59.5067201171875,40.14314653320312,59.7401201171875,39.468546533203124,59.9289201171875C38.78544653320313,60.1160201171875,38.10754653320313,60.3048201171875,37.414446533203126,60.4473201171875C36.724746533203124,60.5915201171875,36.02994653320312,60.7065201171875,35.33184653320313,60.7992201171875C33.91384653320313,60.9846201171875,32.48904653320312,61.0292201171875,31.062646533203125,60.9931201171875C29.939946533203123,60.9622201171875,28.800446533203125,60.8593201171875,27.694546533203123,60.6584201171875C26.313446533203123,60.4044201171875,24.944046533203124,60.0954201171875,23.613246533203124,59.6320201171875C22.332846533203124,59.1840201171875,21.084346533203124,58.6622201171875,19.877746533203123,58.0322201171875C17.543446533203124,56.8118201171875,15.395346533203124,55.2464201171875,13.509126533203125,53.3857201171875C11.564146533203125,51.4667201171875,9.902776533203124,49.2508201171875,8.598846533203126,46.8306201171875C7.291566533203125,44.3983201171875,6.360186533203125,41.7515201171875,5.833249533203125,39.0292201171875C5.657042533203125,38.124620117187504,5.527825533203125,37.2097201171875,5.447273533203125,36.2897201171875C5.373434833203125,35.4366201171875,5.348262533203125,34.5853201171875,5.326446533203125,33.730520117187496L5.873524533203125,33.730520117187496Z" fill-rule="evenodd" fill="#05B8FF" fill-opacity="1"/></g><g style="opacity:0.5;mix-blend-mode:passthrough"><path d="M28.494262158203124,8.08258056640625L28.940662158203125,11.369620566406251C28.954062158203126,11.48291056640625,28.970862158203126,11.59963056640625,28.985962158203126,11.71463056640625C28.433862158203127,11.78329056640625,27.878462158203124,11.88628056640625,27.338062158203126,12.01501056640625C26.663462158203124,12.178080566406251,25.987162158203127,12.337710566406251,25.330962158203125,12.566000566406249C24.788962158203127,12.75653056640625,24.251962158203124,12.955640566406249,23.716562158203125,13.17191056640625C23.646062158203126,13.19937056640625,23.651162158203125,13.21139056640625,23.624262158203123,13.144450566406249C23.582362158203125,13.046610566406251,23.543762158203126,12.94877056640625,23.501762158203125,12.849220566406249C23.268562158203125,12.27248056640625,23.033562158203125,11.69746056640625,22.798662158203125,11.12245056640625C22.791962158203123,11.10357056640625,22.783562158203125,11.08297056640625,22.775162158203123,11.06409056640625C22.770062158203125,11.05036056640625,22.575462158203123,11.14476056640625,22.551962158203125,11.15506056640625C22.286762158203125,11.27865056640625,22.021662158203124,11.40051056640625,21.754862158203125,11.52410056640625C21.206062158203125,11.77985056640625,20.669062158203126,12.07509056640625,20.142162158203124,12.38234056640625C19.052962158203123,13.01743056640625,18.004162158203123,13.73663056640625,17.025762158203126,14.54337056640625C15.963512158203125,15.41705056640625,14.946552158203126,16.37999056640625,14.055452158203124,17.43390056640625C13.570462158203124,18.00549056640625,13.085482158203124,18.58048056640625,12.657552158203124,19.19848056640625C12.333662158203126,19.66358056640625,12.018172158203125,20.132180566406248,11.714422158203124,20.61448056640625L13.630882158203125,21.85378056640625C13.332162158203126,22.33098056640625,13.043522158203125,22.82018056640625,12.793482158203126,23.32308056640625C12.494772158203125,23.92388056640625,12.182632158203125,24.52638056640625,11.942652158203124,25.15458056640625C11.707712158203126,25.77078056640625,11.486192158203124,26.38698056640625,11.276432158203125,27.01178056640625C11.162312158203125,27.35678056640625,11.076722158203125,27.71558056640625,10.977712158203126,28.06748056640625C10.788082158203125,28.74888056640625,10.672292158203124,29.45438056640625,10.549782158203126,30.14948056640625C10.427282158203125,30.83778056640625,10.373582158203124,31.53638056640625,10.321562158203125,32.22988056640625C10.296382158203125,32.54058056640625,10.287992158203124,32.84948056640625,10.279602158203126,33.158480566406254C10.277922158203125,33.29408056640625,10.274572158203124,33.43138056640625,10.271212158203125,33.56528056640625C10.269532158203125,33.585880566406246,10.282962158203125,33.716280566406255,10.266182158203126,33.73008056640625C10.252752158203124,33.74208056640625,10.178912158203126,33.73008056640625,10.162132158203125,33.73008056640625L9.885242158203125,33.73008056640625L6.679962158203125,33.73008056640625C6.695065558203125,33.21508056640625,6.684996618203125,32.69328056640625,6.728628658203125,32.17838056640625C6.757157258203125,31.84878056640625,6.778973258203125,31.51578056640625,6.804145158203125,31.18458056640625C6.830996158203125,30.84128056640625,6.884697158203125,30.49798056640625,6.926651158203125,30.15298056640625C7.092788158203125,28.83128056640625,7.388143158203125,27.51818056640625,7.762372158203125,26.24108056640625C8.549422158203125,23.57198056640625,9.757702158203125,21.04538056640625,11.335162158203126,18.77448056640625C11.811762158203125,18.089580566406248,12.315202158203125,17.42876056640625,12.853892158203125,16.793660566406253C13.248262158203126,16.328500566406248,13.654372158203124,15.86505056640625,14.083982158203124,15.43078056640625C14.392762158203125,15.12010056640625,14.703222158203126,14.80084056640625,15.032142158203126,14.510760566406251C15.293932158203125,14.27732056640625,15.557402158203125,14.04559056640625,15.819192158203125,13.812150566406249C16.089372158203126,13.571850566406251,16.379692158203127,13.35557056640625,16.658272158203125,13.129000566406251C17.203662158203123,12.68958056640625,17.785962158203127,12.28106056640625,18.373362158203125,11.90172056640625C19.497662158203127,11.17222056640625,20.674062158203125,10.528550566406249,21.892462158203124,9.98099056640625C23.052062158203125,9.46434056640625,24.250262158203125,9.04037056640625,25.471962158203127,8.70565856640625C26.463762158203124,8.43788956640625,27.472262158203126,8.21474856640625,28.489262158203125,8.08258056640625L28.494262158203124,8.08258056640625Z" fill-rule="evenodd" fill="#05B8FF" fill-opacity="1"/></g><g style="opacity:0.5;mix-blend-mode:passthrough"><path d="M10.649276733398438,45.06822568359375C10.949666733398438,45.66042568359375,11.273550733398437,46.23892568359375,11.619249733398437,46.80192568359375C12.923176733398437,48.91662568359375,14.535886733398439,50.82702568359375,16.39191673339844,52.45252568359375C18.239566733398437,54.07282568359375,20.332226733398436,55.39112568359375,22.570876733398435,56.36952568359375C23.148176733398437,56.62522568359375,23.73387673339844,56.84842568359375,24.327876733398437,57.05432568359375C24.925376733398437,57.26032568359375,25.53287673339844,57.45942568359375,26.143676733398436,57.60192568359375C26.776376733398436,57.75122568359375,27.403976733398437,57.88682568359375,28.04337673339844,58.00182568359375C28.42597673339844,58.07222568359375,28.81197673339844,58.12032568359375,29.199576733398438,58.17012568359375C29.833976733398437,58.25072568359375,30.47497673339844,58.30052568359375,31.114376733398437,58.31772568359375C31.195476733398436,58.32032568359375,31.27677673339844,58.32342568359375,31.357976733398438,58.32652568359375C31.600976733398436,58.33582568359375,31.84367673339844,58.34512568359375,32.082676733398436,58.34002568359375C32.41327673339843,58.33142568359375,32.73717673339844,58.32282568359375,33.06267673339843,58.31252568359375C33.72057673339844,58.29712568359375,34.38177673339844,58.22672568359375,35.03287673339844,58.14092568359375C35.677276733398436,58.05502568359375,36.31837673339844,57.94692568359375,36.957676733398436,57.81302568359375C38.954676733398436,57.39422568359375,40.89467673339844,56.69562568359375,42.722176733398435,55.76702568359375C43.79617673339844,55.21772568359375,44.82997673339844,54.58782568359375,45.809976733398436,53.88062568359375C46.83697673339844,53.14252568359375,47.79017673339844,52.32202568359375,48.70147673339844,51.43982568359375C49.83247673339844,50.34812568359375,50.82767673339844,49.11402568359375,51.73047673339844,47.81632568359375C52.31117673339844,46.98042568359375,52.84307673339844,46.09472568359375,53.30297673339844,45.18322568359375C53.64027673339844,44.50522568359375,53.97417673339844,43.82552568359375,54.249376733398435,43.11832568359375C54.516276733398435,42.43522568359375,54.769676733398434,41.74862568359375,54.98447673339844,41.046625683593746C55.18077673339844,40.40122568359375,55.34017673339844,39.74032568359375,55.48957673339844,39.07952568359375C55.71777673339844,38.053025683593745,55.88557673339844,37.000825683593746,55.962776733398435,35.95552568359375C56.00307673339844,35.41312568359375,56.03827673339844,34.874125683593746,56.05177673339844,34.331725683593746C56.06177673339844,33.84082568359375,56.056776733398436,33.35332568359375,56.04507673339844,32.86072568359375C56.016476733398434,31.75532568359375,55.90407673339844,30.64482568359375,55.714476733398435,29.55822568359375C55.50637673339844,28.37392568359375,55.24287673339844,27.196425683593752,54.86697673339844,26.05322568359375C54.370276733398434,24.553025683593752,53.771176733398434,23.083725683593748,52.997476733398436,21.708835683593747C52.03927673339844,20.00438568359375,50.93337673339844,18.37888568359375,49.60087673339844,16.95078568359375C49.04547673339844,16.35688568359375,48.47827673339844,15.77328568359375,47.86907673339844,15.23431568359375C46.944376733398435,14.41384568359375,45.97277673339844,13.65688568359375,44.93897673339844,12.98059268359375C44.71247673339844,12.83125968359375,44.48087673339844,12.68535968359375,44.24757673339844,12.54632568359375L43.066176733398436,14.58892568359375C43.29107673339844,14.72109568359375,43.50757673339844,14.865275683593751,43.72567673339844,15.00945568359375C45.84517673339844,16.39636568359375,47.73477673339844,18.16604568359375,49.26527673339844,20.21207568359375C49.983576733398436,21.176735683593748,50.63967673339844,22.20146568359375,51.19517673339844,23.27772568359375C51.305876733398435,23.49392568359375,51.41167673339844,23.711925683593748,51.519076733398435,23.92822568359375C51.544576733398436,23.981825683593748,51.56717673339844,23.96772568359375,51.606176733398435,23.94362568359375C51.618376733398435,23.936025683593748,51.63217673339844,23.92742568359375,51.64827673339844,23.91962568359375C51.938576733398435,23.77372568359375,52.22887673339844,23.62782568359375,52.519276733398435,23.48542568359375L52.86657673339844,23.30862568359375C52.87837673339844,23.30512568359375,52.913576733398436,23.27942568359375,52.92367673339844,23.27942568359375C52.94377673339844,23.28452568359375,52.979076733398436,23.39102568359375,52.99077673339844,23.409825683593752C53.01767673339844,23.46822568359375,53.04117673339844,23.52482568359375,53.064676733398436,23.58152568359375C53.27947673339844,24.067225683593747,53.494276733398436,24.553025683593752,53.683876733398435,25.05082568359375C54.143676733398436,26.259225683593748,54.50447673339844,27.498525683593748,54.769676733398434,28.76352568359375C55.35527673339844,31.56482568359375,55.427476733398436,34.46732568359375,55.01637673339844,37.30122568359375C54.82167673339844,38.66242568359375,54.50447673339844,39.999525683593745,54.07487673339844,41.30402568359375C53.87187673339844,41.91342568359375,53.66037673339844,42.52792568359375,53.401976733398435,43.11492568359375C53.136776733398435,43.72772568359375,52.84987673339844,44.33022568359375,52.55277673339844,44.92582568359375C52.52757673339844,44.97382568359375,52.27087673339844,45.45962568359375,52.264176733398436,45.45442568359375L52.06107673339844,45.33602568359375C51.769076733398435,45.16782568359375,51.47707673339844,44.99792568359375,51.18507673339844,44.82792568359375C51.09947673339844,44.77822568359375,51.01557673339844,44.73012568359375,50.93167673339844,44.68202568359375C50.91647673339844,44.67212568359375,50.78117673339844,44.92412568359375,50.724976733398435,45.02882568359375C50.71307673339844,45.05102568359375,50.704676733398436,45.06662568359375,50.70177673339844,45.07172568359375C50.40807673339844,45.60212568359375,50.067476733398436,46.11012568359375,49.721776733398436,46.60622568359375C48.290276733398436,48.65742568359375,46.53327673339844,50.44422568359375,44.521176733398434,51.90322568359375L43.52597673339844,50.45972568359375C43.16347673339844,50.72572568359375,42.78757673339844,50.97292568359375,42.41167673339844,51.21842568359375C41.85787673339844,51.57882568359375,41.26387673339843,51.87232568359375,40.67987673339844,52.18472568359375C40.060576733398435,52.46622568359375,39.44137673339844,52.76832568359375,38.79527673339844,52.98972568359375C38.16257673339844,53.20432568359375,37.52997673339844,53.41712568359375,36.88557673339844,53.58542568359375C36.20757673339844,53.76222568359375,35.522876733398434,53.89432568359375,34.83487673339844,53.99042568359375C33.47387673339844,54.18272568359375,32.075976733398434,54.26172568359375,30.70657673339844,54.15182568359375C29.399276733398438,54.04882568359375,28.09367673339844,53.86692568359375,26.828376733398436,53.50302568359375C26.660576733398436,53.45492568359375,26.489376733398437,53.40682568359375,26.321576733398437,53.35712568359375C26.310776733398438,53.35292568359375,26.287076733398436,53.44152568359375,26.27547673339844,53.48482568359375C26.272676733398438,53.49542568359375,26.270576733398435,53.50332568359375,26.269576733398438,53.50642568359375C26.17887673339844,53.82742568359375,26.084976733398438,54.14672568359375,25.994276733398436,54.46592568359375C25.952376733398438,54.60842568359375,25.912076733398436,54.75262568359375,25.870176733398438,54.89672568359375C25.867376733398437,54.90512568359375,25.86467673339844,54.91812568359375,25.861576733398437,54.93312568359375C25.851276733398436,54.98272568359375,25.836576733398438,55.05322568359375,25.802976733398438,55.04262568359375C25.311276733398437,54.90362568359375,24.826276733398437,54.72682568359375,24.349776733398436,54.54322568359375C21.814076733398437,53.56132568359375,19.446166733398435,52.09892568359375,17.442446733398437,50.23142568359375C15.527676733398437,48.44972568359375,13.886436733398437,46.33502568359375,12.710046733398437,43.97312568359375L12.409656733398437,44.13282568359375C11.822306733398438,44.44522568359375,11.234952733398437,44.75762568359375,10.649276733398438,45.06822568359375Z" fill="#05B8FF" fill-opacity="1"/></g><g style="mix-blend-mode:passthrough"><path d="M9.531387329101562,45.66505419921875C9.684099329101562,45.97065419921875,9.846880329101563,46.27095419921875,10.014695329101562,46.56965419921875C10.640647329101562,47.69565419921875,11.348827329101562,48.77355419921875,12.137557329101563,49.78455419921875C12.944757329101563,50.82305419921875,13.830817329101563,51.78425419921875,14.767227329101562,52.69915419921875C15.596237329101562,53.50415419921875,16.500767329101564,54.22855419921875,17.432137329101565,54.90825419921875C17.999357329101564,55.32025419921875,18.585027329101564,55.71155419921875,19.185807329101564,56.06515419921875C19.796687329101562,56.42565419921875,20.41588732910156,56.75865419921875,21.043487329101563,57.08645419921875C21.674487329101563,57.37825419921875,22.302187329101564,57.65805419921875,22.94658732910156,57.92065419921875C23.600987329101564,58.18155419921875,24.268987329101563,58.40815419921875,24.94358732910156,58.60385419921875C25.616487329101563,58.79945419921875,26.294487329101564,58.99175419921875,26.984187329101562,59.12215419921875C27.658787329101564,59.24925419921875,28.333387329101562,59.36075419921875,29.014787329101562,59.44665419921875C31.453087329101564,59.75555419921875,33.94848732910157,59.66805419921875,36.36678732910156,59.24745419921875C39.03668732910156,58.78235419921875,41.65628732910156,57.84345419921875,44.03758732910156,56.52515419921875C46.29308732910156,55.27725419921875,48.362187329101566,53.66555419921875,50.152787329101564,51.78425419921875C52.040687329101566,49.80345419921875,53.609787329101565,47.51715419921875,54.78948732910156,45.02655419921875C55.39538732910156,43.75295419921875,55.90718732910156,42.424354199218755,56.29648732910156,41.06325419921875C56.69428732910156,39.68145419921875,56.96278732910156,38.26535419921875,57.140587329101564,36.83725419921875C57.47628732910156,34.14065419921875,57.35708732910156,31.36685419921875,56.846987329101566,28.70465419921875C56.319987329101565,25.93255419921875,55.32818732910156,23.26345419921875,53.953787329101566,20.817464199218747C52.68178732910156,18.555154199218748,51.08078732910156,16.505694199218752,49.21138732910156,14.73086419921875C48.783387329101565,14.32062419921875,48.34208732910156,13.92755419921875,47.882287329101565,13.55680419921875C47.36198732910156,13.13969419921875,46.83508732910156,12.73804419921875,46.29468732910156,12.34840519921875C45.851687329101566,12.02399219921875,45.37848732910156,11.72017719921875,44.905187329101565,11.44382567421875C44.88188732910156,11.42977379921875,44.78428732910156,11.61128219921875,44.739487329101564,11.69452919921875C44.72958732910156,11.71297019921875,44.72228732910156,11.72658919921875,44.71888732910156,11.73219219921875L44.504087329101566,12.10295019921875C45.801387329101566,12.89424419921875,47.02638732910156,13.80568419921875,48.17088732910156,14.821834199218749C49.550287329101565,16.04224419921875,50.82068732910156,17.44803419921875,51.87788732910156,18.96711419921875C52.789187329101566,20.27849419921875,53.62488732910156,21.65685419921875,54.274387329101565,23.12615419921875C54.64348732910156,23.96035419921875,54.984187329101566,24.80825419921875,55.271187329101565,25.67505419921875C55.45068732910156,26.222654199218752,55.606787329101564,26.77015419921875,55.76118732910156,27.324554199218753C55.92898732910156,27.93055419921875,56.05148732910156,28.55185419921875,56.15718732910156,29.17155419921875C56.259587329101564,29.75345419921875,56.34018732910156,30.33875419921875,56.41228732910156,30.92575419921875C56.47268732910156,31.40805419921875,56.499587329101566,31.89725419921875,56.533187329101565,32.38305419921875C56.554987329101564,32.70915419921875,56.553287329101565,33.04215419921875,56.55998732910156,33.36995419921875C56.56338732910156,33.56055419921875,56.56668732910156,33.75105419921875,56.56338732910156,33.93985419921875C56.551587329101565,34.502854199218746,56.53478732910156,35.06245419921875,56.491187329101564,35.62715419921875C56.45088732910156,36.17295419921875,56.39048732910156,36.71195419921875,56.323387329101564,37.257854199218755C56.175687329101564,38.44905419921875,55.902187329101565,39.62305419921875,55.57998732910156,40.77825419921875C55.17218732910156,42.247554199218754,54.61668732910156,43.68255419921875,53.93698732910156,45.04195419921875C53.23388732910156,46.44435419921875,52.42838732910156,47.79865419921875,51.476887329101565,49.03795419921875C50.901287329101564,49.78805419921875,50.297087329101565,50.50375419921875,49.65438732910156,51.19555419921875C48.91428732910156,51.98855419921875,48.11048732910156,52.72495419921875,47.271387329101564,53.40805419921875C46.326587329101564,54.17365419921875,45.328087329101564,54.87045419921875,44.28428732910156,55.49185419921875C43.413287329101564,56.00335419921875,42.512187329101565,56.44275419921875,41.597587329101565,56.86505419921875C41.310587329101566,57.00065419921875,41.01018732910156,57.10535419921875,40.71648732910156,57.22205419921875C40.11738732910156,57.46235419921875,39.49478732910156,57.68035419921875,38.87558732910156,57.85205419921875C38.24798732910156,58.02705419921875,37.623687329101564,58.20045419921875,36.98428732910156,58.33265419921875C36.34828732910157,58.46305419921875,35.712287329101564,58.57125419921875,35.067887329101566,58.65355419921875C33.76228732910156,58.82695419921875,32.451587329101564,58.86645419921875,31.137587329101564,58.83215419921875C30.103887329101564,58.80465419921875,29.05498732910156,58.71025419921875,28.034687329101562,58.52315419921875C26.764387329101563,58.29145419921875,25.50578732910156,58.00645419921875,24.27898732910156,57.57905419921875C23.097587329101565,57.16715419921875,21.94808732910156,56.68655419921875,20.837087329101564,56.10805419921875C18.689077329101565,54.98545419921875,16.712207329101563,53.54365419921875,14.971967329101563,51.82715419921875C13.181377329101561,50.06265419921875,11.654257329101561,48.02005419921875,10.452694329101563,45.79205419921875C10.365430329101562,45.62905419921875,10.281522329101563,45.47115419921875,10.199292329101562,45.30805419921875C9.976098329101562,45.42815419921875,9.752903329101562,45.54495419921875,9.531387329101562,45.66505419921875Z" fill="#05B8FF" fill-opacity="1"/></g><g style="mix-blend-mode:passthrough"><path d="M7.6289217001953125,41.02503155078125C7.192890000195312,41.57938955078125,7.045283700195313,42.31114955078125,7.248878500195312,43.00963955078125C7.437203700195313,43.66192955078125,7.975032700195312,44.16454955078125,8.572247700195312,44.34378955078125C9.230537700195313,44.535969550781246,9.944807700195312,44.38629955078125,10.528447700195311,44.02041955078125C11.341127700195312,43.51040955078125,12.096127700195312,42.37581955078125,11.614287700195312,41.33177955078125C11.166377700195312,40.36349655078125,10.002497700195313,40.02903355078125,9.084627700195313,40.18240615078125C8.529827700195312,40.27479955078125,7.997088700195312,40.55752255078125,7.6289217001953125,41.02503155078125Z" fill="#05B8FF" fill-opacity="1"/></g><g style="mix-blend-mode:passthrough"><path d="M5.4521484375,35.2347441171875C5.5505525375,36.6575951171875,5.6998554375,38.0859951171875,5.9950674375,39.4774351171875L6.2342914375,40.6138751171875C6.3309984375,40.9797551171875,6.4260094375,41.3456251171875,6.5210184375,41.7152051171875C6.7076484375,42.4229351171875,6.9315984375,43.1251251171875,7.1810084375,43.8106751171875C7.2827984375,44.0878551171875,7.3812084375,44.3650351171875,7.4830084375000006,44.6440651171875C7.4857384375,44.6519951171875,7.4894384375000005,44.6653551171875,7.4940084375,44.6818251171875C7.5149784375,44.7573951171875,7.5540984375,44.8984951171875,7.6000684375,44.8786951171875C7.7052584374999995,44.8269951171875,7.8087584375,44.7789951171875,7.9139484375,44.7290651171875C9.0676484375,44.1876451171875,10.2213484375,43.6480651171875,11.3767484375,43.1047951171875C12.2046984375,42.7167451171875,13.0343484375,42.3268451171875,13.8622984375,41.9369451171875C13.6383484375,41.4047651171875,13.4568084375,40.8430051171875,13.2871484375,40.2868051171875C12.857898437500001,38.8842751171875,12.555908437500001,37.4521851171875,12.386238437500001,35.9849751171875C12.3472184375,35.6357301171875,12.3166784375,35.2883321171875,12.292928437499999,34.9372381171875C12.2921284375,34.9276841171875,12.292738437499999,34.9118041171875,12.2934484375,34.8931471171875C12.295778437500001,34.8324083171875,12.2992284375,34.7422327671875,12.2589984375,34.7450600140875C12.1436284375,34.7542993271875,12.0299484375,34.7616908171875,11.9162784375,34.7709301171875C10.662478437499999,34.8614751171875,9.4069784375,34.9501731171875,8.1548684375,35.0407181171875C7.2539584375,35.1053931171875,6.3530544375,35.1719161171875,5.4521484375,35.2347441171875Z" fill="#05B8FF" fill-opacity="1"/></g><g style="mix-blend-mode:passthrough"><path d="M49.23762778320312,35.32647705078125C48.748127783203124,43.17856705078125,42.74952778320313,49.45547705078125,35.252227783203125,49.96797705078125L35.252227783203125,51.681677050781246C43.652907783203126,51.16327705078125,50.377227783203125,44.12247705078125,50.87052778320312,35.32647705078125L49.23762778320312,35.32647705078125Z" fill-rule="evenodd" fill="#05B8FF" fill-opacity="1"/></g><g style="opacity:0.5;mix-blend-mode:passthrough"><path d="M15.729638720703125,30.00137919921875C16.230778720703125,22.14930919921875,22.370268720703123,15.87238919921875,30.046038720703123,15.35986919921875L30.046038720703123,13.64617919921875C21.447318720703123,14.16463919921875,14.560951720703125,21.20737919921875,14.055938720703125,30.00137919921875L15.729638720703125,30.00137919921875Z" fill-rule="evenodd" fill="#05B8FF" fill-opacity="1"/></g><g style="opacity:0.5;mix-blend-mode:passthrough"><path d="M20.413543829101563,25.50352475C20.27973062910156,25.72387675,20.337408829101562,26.01355275,20.54158982910156,26.14724875C20.74576982910156,26.28094875,21.012242829101563,26.22152875,21.136827829101563,26.01355275C21.25563982910156,25.80310375,21.214119829101563,25.52580775,21.016856829101563,25.37601775C20.824211829101564,25.22994165,20.54158982910156,25.27822075,20.413543829101563,25.50352475Z" fill="#05B8FF" fill-opacity="1"/></g><g style="opacity:0.5;mix-blend-mode:passthrough"><path d="M19.618582137695313,26.9488141171875C19.506686637695314,27.1827831171875,19.59089713769531,27.4637941171875,19.805459137695312,27.5752101171875C20.021176137695313,27.6866201171875,20.28072713769531,27.5987301171875,20.385701137695314,27.379615117187498C20.487216137695313,27.1567871171875,20.41569413769531,26.8844421171875,20.208053137695313,26.7569351171875C20.000411137695313,26.6319040171875,19.727017137695313,26.7111321171875,19.618582137695313,26.9488141171875Z" fill="#05B8FF" fill-opacity="1"/></g><g style="opacity:0.5;mix-blend-mode:passthrough"><path d="M18.96347314160156,28.4724911328125C18.873495441601563,28.7176021328125,18.981930141601563,28.9887091328125,19.20687514160156,29.0766061328125C19.431820141601563,29.1644961328125,19.682143141601564,29.0493661328125,19.766353141601563,28.8203501328125C19.84710014160156,28.5888571328125,19.74789614160156,28.3239391328125,19.529873141601563,28.2199531328125C19.31069614160156,28.1159669328125,19.049990141601562,28.2261431328125,18.96347314160156,28.4724911328125Z" fill="#05B8FF" fill-opacity="1"/></g><g style="opacity:0.5;mix-blend-mode:passthrough"><path d="M18.45246830859375,30.05688725C18.38556190859375,30.31190125,18.51822130859375,30.56815625,18.75008830859375,30.63252625C18.98195430859375,30.69565625,19.22074130859375,30.554536249999998,19.28418730859375,30.31685325C19.31533630859375,30.19801125,19.29687630859375,30.07545625,19.24381230859375,29.97147025C19.19420930859375,29.86872225,19.10653830859375,29.78454225,18.99233630859375,29.74492825C18.87813330859375,29.70655325,18.76047030859375,29.72017025,18.66011030859375,29.77587725C18.56205730859375,29.83282225,18.48707530859375,29.93185625,18.45246830859375,30.05688725Z" fill="#05B8FF" fill-opacity="1"/></g><g style="opacity:0.5;mix-blend-mode:passthrough"><path d="M18.09245793359375,31.6923163671875C18.04862293359375,31.9510443671875,18.20435393359375,32.1924413671875,18.44198793359375,32.2308213671875C18.67846793359375,32.2679513671875,18.90341293359375,32.1033103671875,18.94378693359375,31.8606753671875C18.96454693359375,31.7393583671875,18.93340493359375,31.6180403671875,18.87226693359375,31.5202443671875C18.81228093359375,31.4236853671875,18.71653593359375,31.3494093671875,18.60002593359375,31.3234133671875C18.48351593359375,31.2949403671875,18.36585293359375,31.3221753671875,18.27125993359375,31.3877853671875C18.18012893359375,31.4546333671875,18.11322193359375,31.5623333671875,18.09245793359375,31.6923163671875Z" fill="#05B8FF" fill-opacity="1"/></g><g style="opacity:0.5;mix-blend-mode:passthrough"><path d="M17.8848668125,33.3556521328125C17.8664098125,33.6180941328125,18.0452118125,33.8421561328125,18.2839998125,33.8557761328125C18.5227868125,33.8681561328125,18.7304288125,33.6787521328125,18.7477278125,33.4324041328125C18.7615778125,33.1872931328125,18.5920008125,32.9644661328125,18.3555208125,32.9335171328125C18.1178858125,32.9050451328125,17.8998628125,33.0919731328125,17.8848668125,33.3556521328125Z" fill="#05B8FF" fill-opacity="1"/></g><g style="mix-blend-mode:passthrough"><path d="M44.112179012695314,19.36809380078125C43.96686091269531,19.56742180078125,43.99569401269531,19.85182980078125,44.176764012695315,20.00132580078125C44.353221012695315,20.15690080078125,44.619637012695314,20.13381080078125,44.77764101269531,19.94420080078125C44.93564801269531,19.75581180078125,44.913728012695316,19.46168080078125,44.725742012695314,19.29638380078125C44.531985012695316,19.13594870078125,44.25749601269531,19.16754980078125,44.112179012695314,19.36809380078125Z" fill="#05B8FF" fill-opacity="1"/></g><g style="mix-blend-mode:passthrough"><path d="M42.86553242089844,18.45041580078125C42.73866812089844,18.66554480078125,42.79402742089844,18.94509080078125,42.987784420898436,19.07635580078125C43.18038742089844,19.20883580078125,43.44103742089844,19.16143580078125,43.58174142089844,18.95602980078125C43.71898642089844,18.75183980078125,43.674006420898436,18.45770880078125,43.467563420898436,18.31550480078125C43.26111942089844,18.17694730078125,42.99124442089844,18.23771780078125,42.86553242089844,18.45041580078125Z" fill="#05B8FF" fill-opacity="1"/></g><g style="mix-blend-mode:passthrough"><path d="M41.5381096875,17.6687366328125C41.4331581875,17.8948036328125,41.5138906875,18.1682726328125,41.7191806875,18.2788736328125C41.9244706875,18.3870436328125,42.1770466875,18.3165536328125,42.2981446875,18.0953476328125C42.4157796875,17.8802196328125,42.3454306875,17.5897346328125,42.1239936875,17.4730546328125C41.9060176875,17.3539436328125,41.6430616875,17.4426686328125,41.5381096875,17.6687366328125Z" fill="#05B8FF" fill-opacity="1"/></g><g style="mix-blend-mode:passthrough"><path d="M40.14262324609375,17.0305381328125C40.06073764609375,17.2663291328125,40.16684224609375,17.5300741328125,40.38020624609375,17.6187961328125C40.59587624609375,17.7026661328125,40.84037824609375,17.6066461328125,40.93956324609375,17.3745011328125C41.03644724609375,17.1472181328125,40.93841024609375,16.8652411328125,40.70774724609375,16.7753001328125C40.47939124609375,16.6780672328125,40.22681524609375,16.7935321328125,40.14262324609375,17.0305381328125Z" fill="#05B8FF" fill-opacity="1"/></g><g style="mix-blend-mode:passthrough"><path d="M38.69521993359375,16.54097344921875C38.63524693359375,16.78527244921875,38.76557193359375,17.03686344921875,38.98700793359375,17.10249544921875C39.20959793359375,17.16448544921875,39.44372093359375,17.04172544921875,39.51983993359375,16.80107244921875C39.59595693359375,16.56406644921875,39.46909393359375,16.29424344921875,39.23151093359375,16.22739544921875C38.99623493359375,16.15811644921875,38.75519193359375,16.29788944921875,38.69521993359375,16.54097344921875Z" fill="#05B8FF" fill-opacity="1"/></g><g style="mix-blend-mode:passthrough"><path d="M37.20868128320313,16.2085755C37.17062228320312,16.4565205,37.32401328320312,16.693527500000002,37.55006328320312,16.7360675C37.77841928320313,16.7749575,38.001009283203125,16.6266785,38.054061283203126,16.3775185C38.105965283203126,16.1344345,37.95487628320313,15.8804125,37.71268028320313,15.8403035C37.47048428320313,15.7941185,37.24443428320313,15.9594145,37.20868128320313,16.2085755Z" fill="#05B8FF" fill-opacity="1"/></g><g style="mix-blend-mode:passthrough" transform="matrix(-1,0,0,-1,46.2000732421875,101.0234375)"><path d="M23.33762762109375,50.83849175C23.19230952109375,51.03781975,23.22114262109375,51.32222775,23.40221262109375,51.47172375C23.57866962109375,51.62729875,23.84508562109375,51.60420875,24.00308962109375,51.41459875C24.16109662109375,51.22620975,24.13917662109375,50.93207875,23.95119062109375,50.76678175C23.75743362109375,50.60634665,23.48294462109375,50.63794775,23.33762762109375,50.83849175Z" fill="#05B8FF" fill-opacity="1"/></g><g style="mix-blend-mode:passthrough" transform="matrix(-1,0,0,-1,48.644805908203125,102.9307861328125)"><path d="M24.53572895410156,51.82761306640625C24.408864654101563,52.04274206640625,24.464223954101563,52.32228806640625,24.657980954101564,52.45355306640625C24.850583954101563,52.58603306640625,25.11123395410156,52.53863306640625,25.251937954101564,52.33322706640625C25.389182954101564,52.12903706640625,25.34420295410156,51.83490606640625,25.13775995410156,51.69270206640625C24.931315954101564,51.55414456640625,24.66144095410156,51.61491506640625,24.53572895410156,51.82761306640625Z" fill="#05B8FF" fill-opacity="1"/></g><g style="mix-blend-mode:passthrough" transform="matrix(-1,0,0,-1,51.255859375,104.57257080078125)"><path d="M25.8193596875,52.68829840039062C25.7144081875,52.91436540039062,25.7951406875,53.18783440039063,26.0004306875,53.29843540039062C26.2057206875,53.406605400390625,26.4582966875,53.336115400390625,26.5793946875,53.11490940039062C26.6970296875,52.89978140039062,26.6266806875,52.609296400390626,26.4052436875,52.492616400390624C26.1872676875,52.37350540039063,25.9243116875,52.462230400390624,25.8193596875,52.68829840039062Z" fill="#05B8FF" fill-opacity="1"/></g><g style="mix-blend-mode:passthrough" transform="matrix(-1,0,0,-1,54.01116943359375,105.93194580078125)"><path d="M27.179030716796873,53.40947490039063C27.097145116796874,53.645265900390626,27.203249716796876,53.909010900390626,27.416613716796874,53.99773290039062C27.632283716796874,54.08160290039063,27.876785716796874,53.985582900390625,27.975970716796876,53.75343790039062C28.072854716796876,53.52615490039062,27.974817716796874,53.244177900390625,27.744154716796874,53.15423690039062C27.515798716796876,53.05700400039063,27.263222716796875,53.172468900390626,27.179030716796873,53.40947490039063Z" fill="#05B8FF" fill-opacity="1"/></g><g style="mix-blend-mode:passthrough" transform="matrix(-1,0,0,-1,56.880035400390625,106.99444580078125)"><path d="M28.600630700195314,53.98186090039062C28.54065770019531,54.22615990039063,28.670982700195314,54.477750900390625,28.89241870019531,54.543382900390625C29.11500870019531,54.60537290039063,29.34913170019531,54.48261290039063,29.425250700195313,54.241959900390626C29.501367700195313,54.004953900390625,29.374504700195313,53.73513090039062,29.136921700195312,53.66828290039062C28.901645700195314,53.59900390039063,28.660602700195312,53.738776900390626,28.600630700195314,53.98186090039062Z" fill="#05B8FF" fill-opacity="1"/></g><g style="mix-blend-mode:passthrough" transform="matrix(-1,0,0,-1,59.8359375,107.74554443359375)"><path d="M30.06973475,54.40166021679688C30.03167575,54.64960521679688,30.18506675,54.88661221679688,30.41111675,54.92915221679687C30.63947275,54.968042216796874,30.86206275,54.81976321679687,30.91511475,54.570603216796876C30.96701875,54.32751921679687,30.81592975,54.07349721679687,30.57373375,54.03338821679687C30.33153775,53.98720321679688,30.10548775,54.152499216796876,30.06973475,54.40166021679688Z" fill="#05B8FF" fill-opacity="1"/></g><g style="opacity:0.5;mix-blend-mode:passthrough"><path d="M42.08869790820312,47.11067269921875C42.07949290820312,47.22261769921875,42.110558908203124,47.34308069921875,42.18419590820312,47.44042369921875C42.25898390820313,47.53898469921875,42.36483790820313,47.59617669921875,42.47759490820312,47.60834669921875C42.58805090820312,47.61807669921875,42.70195790820313,47.57913669921875,42.79400490820313,47.49517969921875C42.97925090820313,47.32604569921875,42.998810908203126,47.03766469921875,42.83772690820312,46.85149569921875C42.67664490820312,46.66532569921875,42.40510790820313,46.64342379921875,42.23136990820313,46.80282369921875C42.14507690820312,46.88191569921875,42.097902908203125,46.99386069921875,42.08869790820312,47.11067269921875Z" fill="#05B8FF" fill-opacity="1"/></g><g style="opacity:0.5;mix-blend-mode:passthrough"><path d="M43.30253175,45.73011525C43.14490175,45.90655125,43.15065475,46.19371425,43.31518775,46.37136625C43.48432375,46.55388625,43.75816175,46.55023625,43.92729775,46.36041525C44.09527875,46.17302925,44.08837875,45.88586525,43.90888875,45.71551425C43.73399975,45.54881325,43.46016175,45.55368025,43.30253175,45.73011525Z" fill="#05B8FF" fill-opacity="1"/></g><g style="opacity:0.5;mix-blend-mode:passthrough"><path d="M44.26677125,44.55144180078125C44.12524955,44.74126080078125,44.15976725,45.02964180078125,44.34040825,45.18904180078125C44.52450125,45.35209080078125,44.79603925,45.31802080078125,44.94676525,45.11481680078125C45.09979625,44.91161280078125,45.06297625,44.62323180078125,44.86852525,44.47234980078125C44.67752925,44.32511760078125,44.41059425,44.36283780078125,44.26677125,44.55144180078125Z" fill="#05B8FF" fill-opacity="1"/></g><g style="opacity:0.5;mix-blend-mode:passthrough"><path d="M45.117058700195315,43.2772021171875C44.99164550019531,43.4816231171875,45.05262670019531,43.7627031171875,45.249375700195316,43.9038511171875C45.44612570019531,44.0462201171875,45.713060700195314,43.9841601171875,45.84652770019531,43.7651361171875C45.91095770019531,43.6580591171875,45.93166770019531,43.5327291171875,45.90520770019531,43.4171331171875C45.87874470019531,43.3027551171875,45.80970970019531,43.2005441171875,45.707307700195315,43.1348371171875C45.60490570019531,43.0703471171875,45.48754670019531,43.0557451171875,45.38284370019531,43.0837321171875C45.276989700195315,43.1092841171875,45.17919070019531,43.1737741171875,45.117058700195315,43.2772021171875Z" fill="#05B8FF" fill-opacity="1"/></g><g style="opacity:0.5;mix-blend-mode:passthrough"><path d="M45.84301868359375,41.91999525C45.73831568359375,42.13658425,45.82345868359375,42.40914625,46.03286468359375,42.52961125C46.24227068359375,42.64885125,46.50230168359375,42.56003125,46.61505968359375,42.33005425C46.73012068359375,42.10008025,46.63231768359375,41.82143425,46.41600868359375,41.71679025C46.19854868359375,41.61092915,45.95002268359375,41.70583925,45.84301868359375,41.91999525Z" fill="#05B8FF" fill-opacity="1"/></g><g style="opacity:0.5;mix-blend-mode:passthrough"><path d="M46.43676623339844,40.49376425C46.35277403339844,40.72008725,46.463230233398434,40.98048125,46.68299123339844,41.07904125C46.90275223339844,41.17760125,47.15357923339844,41.06079125,47.24332423339844,40.81986425C47.33767423339844,40.58015625,47.211108233398434,40.31246125,46.98789523339844,40.22971925C46.761230233398436,40.14819425,46.52421123339844,40.26987325,46.43676623339844,40.49376425Z" fill="#05B8FF" fill-opacity="1"/></g><g style="mix-blend-mode:passthrough" filter="url(#master_svg1_4190_62388)"><path d="M31.981033325195312,12.216528300781249C31.981033325195312,13.26640830078125,32.83295332519531,14.11829830078125,33.88410332519531,14.11829830078125C34.935243325195316,14.11829830078125,35.787163325195316,13.26640830078125,35.787163325195316,12.216528300781249C35.787163325195316,11.16614930078125,34.935243325195316,10.31475830078125,33.88410332519531,10.31475830078125C32.83295332519531,10.31475830078125,31.981033325195312,11.16614930078125,31.981033325195312,12.216528300781249Z" fill="#00FFF7" fill-opacity="1"/></g><g style="mix-blend-mode:passthrough" filter="url(#master_svg2_4190_62407)"><path d="M8.002365112304688,39.34442330078125C8.002365112304688,40.04224330078125,8.571734112304688,40.60846330078125,9.274255112304687,40.60846330078125C9.976775112304688,40.60846330078125,10.546145112304687,40.04224330078125,10.546145112304687,39.34442330078125C10.546145112304687,38.64627430078125,9.976775112304688,38.08038330078125,9.274255112304687,38.08038330078125C8.571734112304688,38.08038330078125,8.002365112304688,38.64627430078125,8.002365112304688,39.34442330078125Z" fill="#FFFFFF" fill-opacity="1"/></g><g style="mix-blend-mode:passthrough" filter="url(#master_svg3_4190_62379)"><path d="M24.36859130859375,54.938142783203126C24.36859130859375,55.63596278320313,24.937960308593752,56.20218278320313,25.64048130859375,56.20218278320313C26.34300130859375,56.20218278320313,26.912371308593748,55.63596278320313,26.912371308593748,54.938142783203126C26.912371308593748,54.239993783203126,26.34300130859375,53.674102783203125,25.64048130859375,53.674102783203125C24.937960308593752,53.674102783203125,24.36859130859375,54.239993783203126,24.36859130859375,54.938142783203126Z" fill="#FFFFFF" fill-opacity="1"/></g><g style="mix-blend-mode:passthrough" filter="url(#master_svg4_4190_62421)"><path d="M39.973907470703125,50.25107419921875C39.973907470703125,51.30095419921875,40.825827470703125,52.15284419921875,41.876977470703125,52.15284419921875C42.92811747070313,52.15284419921875,43.78003747070313,51.30095419921875,43.78003747070313,50.25107419921875C43.78003747070313,49.20069519921875,42.92811747070313,48.34930419921875,41.876977470703125,48.34930419921875C40.825827470703125,48.34930419921875,39.973907470703125,49.20069519921875,39.973907470703125,50.25107419921875Z" fill="#00FFF7" fill-opacity="1"/></g><g style="mix-blend-mode:passthrough" filter="url(#master_svg5_4190_62383)"><path d="M12.9501953125,29.33200681640625C12.9501953125,30.38188681640625,13.8021153125,31.233776816406248,14.8532653125,31.233776816406248C15.9044053125,31.233776816406248,16.7563253125,30.38188681640625,16.7563253125,29.33200681640625C16.7563253125,28.28162781640625,15.9044053125,27.43023681640625,14.8532653125,27.43023681640625C13.8021153125,27.43023681640625,12.9501953125,28.28162781640625,12.9501953125,29.33200681640625Z" fill="#00FFF7" fill-opacity="1"/></g><g style="mix-blend-mode:passthrough" filter="url(#master_svg6_4190_62382)"><path d="M51.39216613769531,22.98895455078125C51.39216613769531,23.68677455078125,51.961535137695314,24.25299455078125,52.66405613769531,24.25299455078125C53.36657613769531,24.25299455078125,53.93594613769531,23.68677455078125,53.93594613769531,22.98895455078125C53.93594613769531,22.29080555078125,53.36657613769531,21.72491455078125,52.66405613769531,21.72491455078125C51.961535137695314,21.72491455078125,51.39216613769531,22.29080555078125,51.39216613769531,22.98895455078125Z" fill="#FFFFFF" fill-opacity="1"/></g></g><g style="mix-blend-mode:passthrough" filter="url(#master_svg7_4190_62376)"><path d="M31.66938,31.42851Q28.44,33.6793,36.3176,35.5772Q44.7967,37.62,40.6235,44L23.42862,44C25.9425,44,33.7612,37.2115,29.670749999999998,35.5772Q25.83087,34.0429,30.10162,31.42851L22,31.42851L26.28575,23.57149L29.172,28.863039999999998L31.28575,25.14298L32.7834,27.77885L36.2858,22L42,31.42851L31.66938,31.42851Z" fill="#CBF0FF" fill-opacity="1"/></g></g></svg>