<?xml version="1.0" encoding="utf-8"?><svg id="锥体1" image-rendering="auto" baseProfile="basic" version="1.1" x="0px" y="0px" width="24" height="32" xmlns="http://www.w3.org/2000/svg" xmlns:xlink="http://www.w3.org/1999/xlink"><defs><radialGradient id="Gradient_1" gradientUnits="userSpaceOnUse" cx="0" cy="0" r="7.987" fx="0" fy="0" gradientTransform="matrix(1 0 0 .482 -.05 .05)" spreadMethod="pad"><stop offset="0%" stop-color="#02FAFD" stop-opacity="0"/><stop offset="33.333%" stop-color="#02E0FD" stop-opacity=".078"/><stop offset="100%" stop-color="#02E0FD"/></radialGradient><linearGradient id="Gradient_2" gradientUnits="userSpaceOnUse" x1="-3.512" y1="-1.587" x2="-1.587" y2=".287" spreadMethod="pad"><stop offset="0%" stop-color="#00B0E5" stop-opacity="1"/><stop offset="100%" stop-color="#00728D" stop-opacity="1"/></linearGradient><linearGradient id="Gradient_3" gradientUnits="userSpaceOnUse" x1="0" y1="-12.087" x2="0" y2="1.487" spreadMethod="pad"><stop offset="0%" stop-color="#008CCB" stop-opacity="1"/><stop offset="100%" stop-color="#00CEDE" stop-opacity="1"/></linearGradient><linearGradient id="Gradient_4" gradientUnits="userSpaceOnUse" x1="4.062" y1="-2.012" x2="1.537" y2="2.312" spreadMethod="pad"><stop offset="0%" stop-color="#00C4FF" stop-opacity="1"/><stop offset="100%" stop-color="#00728D" stop-opacity="1"/></linearGradient><filter id="filter3" filterUnits="objectBoundingBox" width="500%" height="455.556%" x="-200%" y="-177.778%"><feFlood flood-color="#0FF" flood-opacity="1"/><feComposite in2="SourceAlpha" operator="in"/><feGaussianBlur stdDeviation="4 4" result="glow0_feGaussianBlur"/><feComponentTransfer result="glow0_feComponentTransfer"><feFuncA type="linear" slope=".8" intercept="0"/></feComponentTransfer><feMerge><feMergeNode/><feMergeNode in="SourceGraphic"/></feMerge></filter></defs><g id=".__3CClip-Group.__3E" overflow="visible"><g id=".__E6.__89.__A9.__E6.__95.__A31" transform="translate(12.05 26.35)"><g id=".__E6.__89.__A9.__E6.__95.__A32" transform="matrix(.113 0 0 .113 0 0)"><animateTransform attributeName="transform" additive="replace" type="scale" repeatCount="indefinite" dur="0.833s" keyTimes="0;.05;.1;.15;.2;.25;.3;.35;.4;.45;.5;.55;.6;.65;.7;.75;.8;.85;.9;.95;1" values=".113,.113;.182,.182;.252,.252;.322,.322;.391,.391;.461,.461;.531,.531;.601,.601;.67,.67;.74,.74;.81,.81;.88,.88;.949,.949;1.019,1.019;1.089,1.089;1.159,1.159;1.228,1.228;1.298,1.298;1.368,1.368;1.437,1.437;1.437,1.437"/><animate attributeName="opacity" repeatCount="indefinite" dur="0.833s" keyTimes="0;.05;.1;.15;.2;.25;.3;.35;.4;.45;.5;.55;.6;.65;.7;.75;.8;.85;.9;.95;1" values=".1;.2;.3;.4;.5;.6;.7;.8;.9;1;.94;.88;.82;.76;.7;.63;.57;.52;.45;.4;.4"/><g transform="matrix(1.067 0 0 1.067 0 0)" id="Layer7_0_FILL"><path fill="url(#Gradient_1)" stroke="none" d="M5.65 -2.8Q3.3 -4 0 -4 -3.3 -4 -5.65 -2.8 -8 -1.65 -8 0 -8 1.65 -5.65 2.85 -3.3 4 0 4 3.3 4 5.65 2.85 8 1.65 8 0 8 -1.65 5.65 -2.8Z"/></g></g></g><g id=".__E9.__94.__A5.__E4.__BD.__93.__E7.__A7.__BB.__E5.__8A.__A8" transform="translate(12.05 11.65)" filter="url(#filter3)"><g id=".__E9.__94.__A5.__E5.__BD.__A2.__E4.__BD.__93"><animateTransform attributeName="transform" additive="replace" type="translate" repeatCount="indefinite" dur="0.833s" keyTimes="0;.05;.1;.15;.2;.25;.3;.35;.4;.45;.5;.55;.6;.65;.7;.75;.8;.85;.9;.95;1" values="0,0;0,.55;0,1.15;0,1.75;0,2.35;0,2.9;0,3.5;0,4.1;0,4.7;0,5.3;0,4.75;0,4.2;0,3.7;0,3.15;0,2.6;0,2.1;0,1.55;0,1.05;0,.5;0,0;0,0"/><animate attributeName="opacity" repeatCount="indefinite" dur="0.833s" keyTimes="0;.05;.1;.15;.2;.25;.3;.35;.4;.45;.5;.55;.6;.65;.7;.75;.8;.85;.9;.95;1" values="1;.96;.93;.89;.86;.82;.79;.75;.72;.69;.72;.75;.78;.81;.84;.87;.9;.93;.96;1;1"/><g transform="matrix(1.032 0 0 1.034 0 0)" id="Layer1_0_FILL"><path fill="url(#Gradient_4)" stroke="none" d="M7.75 -5.35L0 -8.75 -7.75 -5.35 0 8.75 7.75 -5.35Z"/></g><g transform="matrix(1.032 0 0 1.034 0 0)" id="Layer2_0_FILL"><path fill="#57FFFF" stroke="none" d="M7.8 -5.6L.05 -8.95Q0 -9 -.1 -8.95L-7.95 -5.55 -8 -5.45 -8 -5.2 -.2 8.95 -.1 9 0 9 .1 8.95 .2 8.85 7.95 -5.2 7.95 -5.4 7.9 -5.55 7.85 -5.6 7.8 -5.6M0 -8.4L7.4 -5.2 0 8.25 -7.4 -5.2 0 -8.4Z" fill-opacity="1"/></g><g transform="matrix(1.032 0 0 1.034 0 0)" id="Layer3_0_FILL"><path fill="url(#Gradient_3)" stroke="none" d="M0 -2L7.75 -5.35 0 -8.75 -7.75 -5.35 0 -2Z"/></g><g transform="matrix(1.032 0 0 1.034 0 0)" id="Layer4_0_FILL"><path fill="#57FFFF" stroke="none" d="M.05 -1.75L7.9 -5.15 8 -5.35 7.95 -5.45Q7.95 -5.6 7.8 -5.6L.05 -8.95Q0 -9 -.1 -8.95L-7.95 -5.55 -8 -5.45 -8 -5.25 -7.85 -5.1 -.1 -1.75Q0 -1.65 .05 -1.75M7.1 -5.3L0 -2.2 -7.1 -5.3 0 -8.4 7.1 -5.3Z" fill-opacity="1"/></g><g transform="matrix(1.032 0 0 1.034 0 0)" id="Layer5_0_FILL"><path fill="url(#Gradient_2)" stroke="none" d="M-7.75 -5.35L0 8.75 0 -2 -7.75 -5.35Z"/></g><g transform="matrix(1.032 0 0 1.034 0 0)" id="Layer6_0_FILL"><path fill="#57FFFF" stroke="none" d="M.15 -2.2L.05 -2.2 -7.7 -5.6 -7.75 -5.65 -7.95 -5.55 -8 -5.45 -8 -5.2 -.2 8.95 -.1 9 0 9 .2 8.9 .25 8.75 .25 -2 .2 -2.05 .2 -2.15 .15 -2.2M-7.15 -4.8L-.25 -1.8 -.25 7.8 -7.15 -4.8Z" fill-opacity="1"/></g></g></g></g></svg>