<svg xmlns="http://www.w3.org/2000/svg" xmlns:xlink="http://www.w3.org/1999/xlink" fill="none" version="1.1" width="15.5" height="22.75146484375" viewBox="0 0 15.5 22.75146484375"><defs><radialGradient cx="0" cy="0" r="1" gradientUnits="userSpaceOnUse" id="master_svg0_913_20561" gradientTransform="translate(7.75 19.00128173828125) rotate(0) scale(7.5 3.619598373770714)"><stop offset="0%" stop-color="#02FDEC" stop-opacity="0"/><stop offset="33.378905057907104%" stop-color="#02FDEC" stop-opacity="0.07999999821186066"/><stop offset="100%" stop-color="#02FDEC" stop-opacity="1"/></radialGradient><linearGradient x1="0.7484907507896423" y1="0.6694899201393127" x2="0.5752840638160706" y2="0.3750375509262085" id="master_svg1_913_20665"><stop offset="0%" stop-color="#00FFD4" stop-opacity="1"/><stop offset="100%" stop-color="#008D7F" stop-opacity="1"/></linearGradient><linearGradient x1="0.5" y1="0" x2="0.5" y2="1" id="master_svg2_913_20831"><stop offset="0%" stop-color="#00FFD4" stop-opacity="1"/><stop offset="100%" stop-color="#008D7F" stop-opacity="1"/></linearGradient><linearGradient x1="0.5" y1="0.535103976726532" x2="1" y2="0.27137479186058044" id="master_svg3_913_20771"><stop offset="0%" stop-color="#00FFD4" stop-opacity="1"/><stop offset="100%" stop-color="#008D7F" stop-opacity="1"/></linearGradient></defs><g style="mix-blend-mode:passthrough"><g style="mix-blend-mode:passthrough"><path d="M7.75,15.25128173828125C3.61,15.25128173828125,0.25,16.93128173828125,0.25,19.00128173828125C0.25,21.07128173828125,3.61,22.75128173828125,7.75,22.75128173828125C11.89,22.75128173828125,15.25,21.07128173828125,15.25,19.00128173828125C15.25,16.93128173828125,11.89,15.25128173828125,7.75,15.25128173828125Z" fill-rule="evenodd" fill="url(#master_svg0_913_20561)" fill-opacity="1"/></g><g style="mix-blend-mode:passthrough"><g style="mix-blend-mode:passthrough"><path d="M0.25,3.49L7.75,17.125L15.25,3.49L7.75,0.25L0.25,3.49Z" fill-rule="evenodd" fill="url(#master_svg1_913_20665)" fill-opacity="1"/><path d="M7.84914,0.47950000000000004L0.3491442,3.7195L0.25,3.49L0.469049,3.36951L7.96905,17.0045L7.75,17.125L7.53095,17.0045L15.031,3.36951L15.25,3.49L15.1509,3.7195L7.65086,0.47950000000000004L7.75,0.25L7.84914,0.47950000000000004ZM7.65086,0.02049999999999999Q7.75,-0.02233099999999999,7.84914,0.02049999999999999L15.3491,3.2605Q15.3601,3.26522,15.3705,3.27095Q15.4141,3.29492,15.4451,3.33373Q15.4762,3.37255,15.4901,3.42031Q15.5039,3.46806,15.4985,3.51749Q15.493,3.56692,15.469,3.61049L7.96905,17.2455Q7.93407,17.3091,7.87049,17.344Q7.82692,17.368,7.77749,17.3735Q7.72806,17.379,7.68031,17.3651Q7.63255,17.3512,7.59373,17.3201Q7.55492,17.2891,7.53095,17.2455L0.030951000000000006,3.61049Q0.02521699999999999,3.60007,0.02049999999999999,3.58914Q0.0007790000000000019,3.54349,0.000028000000000000247,3.49377Q-0.0007220000000000004,3.44405,0.01761299999999999,3.39782Q0.03594800000000001,3.3516,0.070577,3.31591Q0.10520499999999999,3.28022,0.15085579999999998,3.2605L7.65086,0.02049999999999999L7.65086,0.02049999999999999Z" fill="#57FFDB" fill-opacity="1"/></g><g style="mix-blend-mode:passthrough"><path d="M0.25,3.49L7.75,6.745L15.25,3.49L7.75,0.25L0.25,3.49Z" fill-rule="evenodd" fill="url(#master_svg2_913_20831)" fill-opacity="1"/><path d="M7.84914,0.47950000000000004L0.3491442,3.7195L0.25,3.49L0.34953049999999997,3.26067L7.84953,6.51567L7.75,6.745L7.65047,6.51567L15.1505,3.26067L15.25,3.49L15.1509,3.7195L7.65086,0.47950000000000004L7.75,0.25L7.84914,0.47950000000000004ZM7.65086,0.02049999999999999Q7.75,-0.02233099999999999,7.84914,0.02049999999999999L15.3491,3.2605Q15.44,3.29973,15.4793,3.39047Q15.4991,3.43609,15.5,3.48581Q15.5008,3.53553,15.4825,3.58178Q15.4643,3.62804,15.4297,3.66379Q15.3951,3.69954,15.3495,3.71933L7.84953,6.97433Q7.75,7.01753,7.65047,6.97433L0.1504694,3.71933Q0.059728,3.67995,0.02049999999999999,3.58914Q0.0007790000000000019,3.54349,0.000028000000000000247,3.49377Q-0.0007220000000000004,3.44405,0.01761299999999999,3.39782Q0.03594800000000001,3.3516,0.070577,3.31591Q0.10520499999999999,3.28022,0.15085579999999998,3.2605L7.65086,0.02049999999999999L7.65086,0.02049999999999999Z" fill="#57FFDB" fill-opacity="1"/></g><g style="mix-blend-mode:passthrough"><path d="M0.25,3.4940185546875L7.75,17.129018554687498L7.75,6.7340185546875L0.25,3.4940185546875Z" fill-rule="evenodd" fill="url(#master_svg3_913_20771)" fill-opacity="1"/><path d="M7.65086,6.9635185546875L0.15085579999999998,3.7235185546875L0.25,3.4940185546875L0.469049,3.3735295546875L7.96905,17.008518554687498L7.75,17.129018554687498L7.5,17.129018554687498L7.5,6.7340185546875L7.75,6.7340185546875L7.65086,6.9635185546875ZM7.84914,6.5045185546875Q7.88275,6.5190385546875,7.91078,6.5425685546875005Q7.93881,6.5661085546875,7.95891,6.596698554687499Q7.97901,6.6272885546874996,7.98951,6.6623485546875Q8,6.6974185546875,8,6.7340185546875L8,17.129018554687498Q8,17.197418554687502,7.9652,17.2562185546875Q7.9304,17.3151185546875,7.87049,17.3480185546875Q7.82692,17.3720185546875,7.77749,17.377518554687498Q7.72806,17.3830185546875,7.68031,17.3691185546875Q7.63255,17.3552185546875,7.59373,17.3241185546875Q7.55492,17.2931185546875,7.53095,17.249518554687498L0.030951000000000006,3.6145075546875Q0.003036000000000011,3.5637572546875,0.00028300000000000547,3.5059016546875Q-0.002471000000000001,3.4480460546875,0.02049999999999999,3.3948743546875Q0.04022100000000001,3.3492235546874998,0.07591,3.3145955546875Q0.1116,3.2799665546875,0.1578242,3.2616315546875Q0.2040488,3.2432965546875,0.25377128,3.2440465546875Q0.3034937,3.2447975546875,0.3491442,3.2645185546875L7.84914,6.5045185546875Z" fill="#57FFDB" fill-opacity="1"/></g></g></g></svg>