<svg xmlns="http://www.w3.org/2000/svg" xmlns:xlink="http://www.w3.org/1999/xlink" fill="none" version="1.1" width="34" height="32" viewBox="0 0 34 32"><g><path d="M21.5452,0L11.963,0C11.6167,0,11.3334,0.303453,11.3334,0.674089C11.3334,1.04473,11.6167,1.34762,11.963,1.34762L21.5452,1.34762C21.8915,1.34762,22.1748,1.04473,22.1748,0.674089C22.1748,0.303453,21.8915,0,21.5452,0ZM26.7671,29.6972L24.6382,27.4186L28.963,27.4186C30.0058,27.4186,30.8519,26.4584,30.8519,25.2749L30.8519,6.52825L32.7407,6.52825C33.4373,6.52825,34,5.92597,34,5.18048C34,4.435,33.4373,3.83271,32.7407,3.83271L1.25926,3.83271C0.562732,3.83271,0,4.435,0,5.18048C0,5.92597,0.562732,6.52825,1.25926,6.52825L3.14815,6.52825L3.14815,25.2706C3.14815,26.4541,3.99421,27.4144,5.03704,27.4144L9.30671,27.4144L7.18565,29.6846C6.69375,30.211,6.69375,31.066,7.18565,31.5925C7.67755,32.119,8.47639,32.119,8.96829,31.5925L12.8681,27.4186L21.0965,27.4186C21.1359,27.4776,21.1792,27.5324,21.2264,27.5829L24.9845,31.6051C25.4764,32.1316,26.2752,32.1316,26.7671,31.6051C27.259,31.0787,27.259,30.2237,26.7671,29.6972ZM5.66667,24.7231L5.66667,6.52825L28.3333,6.52825L28.3333,24.7231L5.66667,24.7231ZM7.21465,20.0707C7.67762,20.5642,8.42947,20.5642,8.89243,20.0707L13.5739,15.0837L15.5295,17.1724C15.9924,17.666,16.7443,17.666,17.2072,17.1724L23.7035,10.2507C24.1665,9.75709,24.1665,8.95554,23.7035,8.46197C23.2406,7.96841,22.4887,7.96841,22.0258,8.46197L16.3702,14.4914L14.4109,12.3987C13.948,11.9051,13.1961,11.9051,12.7332,12.3987L7.21465,18.282C6.75169,18.7756,6.75169,19.5771,7.21465,20.0707Z" fill-rule="evenodd" fill="#00DDFF" fill-opacity="1"/></g></svg>