<svg xmlns="http://www.w3.org/2000/svg" xmlns:xlink="http://www.w3.org/1999/xlink" fill="none" version="1.1" width="32" height="56.501220703125" viewBox="0 0 32 56.501220703125"><defs><clipPath id="master_svg0_2141_64672"><rect x="0" y="0" width="32" height="56.501220703125" rx="0"/></clipPath><filter id="master_svg1_2141_64674" filterUnits="objectBoundingBox" color-interpolation-filters="sRGB" x="-12" y="-10" width="56" height="56"><feFlood flood-opacity="0" result="BackgroundImageFix"/><feColorMatrix in="SourceAlpha" type="matrix" values="0 0 0 0 0 0 0 0 0 0 0 0 0 0 0 0 0 0 127 0"/><feOffset dy="2" dx="0"/><feGaussianBlur stdDeviation="3"/><feColorMatrix type="matrix" values="0 0 0 0 1 0 0 0 0 0 0 0 0 0 0 0 0 0 0.5 0"/><feBlend mode="normal" in2="BackgroundImageFix" result="effect1_dropShadow"/><feBlend mode="normal" in="SourceGraphic" in2="effect1_dropShadow" result="shape"/><feColorMatrix in="SourceAlpha" type="matrix" result="hardAlpha" values="0 0 0 0 0 0 0 0 0 0 0 0 0 0 0 0 0 0 127 0"/><feOffset dy="1" dx="0"/><feGaussianBlur stdDeviation="4"/><feComposite in2="hardAlpha" operator="arithmetic" k2="-1" k3="1"/><feColorMatrix type="matrix" values="0 0 0 0 1 0 0 0 0 0.1460999995470047 0 0 0 0 0.1460999995470047 0 0 0 1 0"/><feBlend mode="normal" in2="shape" result="effect2_innerShadow"/></filter><radialGradient cx="0" cy="0" r="1" gradientUnits="userSpaceOnUse" id="master_svg2_1765_15212" gradientTransform="translate(15.5 52.751220703125) rotate(0) scale(7.5 3.619598373770714)"><stop offset="0%" stop-color="#FD0202" stop-opacity="0"/><stop offset="33.378905057907104%" stop-color="#FD0202" stop-opacity="0.07999999821186066"/><stop offset="100%" stop-color="#FD0202" stop-opacity="1"/></radialGradient><linearGradient x1="0.7484907507896423" y1="0.6694899201393127" x2="0.5752840638160706" y2="0.3750375509262085" id="master_svg3_1765_15105"><stop offset="0%" stop-color="#FF0000" stop-opacity="1"/><stop offset="100%" stop-color="#8D0000" stop-opacity="1"/></linearGradient><linearGradient x1="0.5" y1="0.946484386920929" x2="0.5" y2="0.06240234524011612" id="master_svg4_1765_15164"><stop offset="0%" stop-color="#CB0000" stop-opacity="1"/><stop offset="100%" stop-color="#FFECEC" stop-opacity="1"/></linearGradient><linearGradient x1="0.5878099203109741" y1="0.500040590763092" x2="0.8399261236190796" y2="0.2540794909000397" id="master_svg5_1765_15054"><stop offset="0%" stop-color="#FF0000" stop-opacity="1"/><stop offset="100%" stop-color="#AD0000" stop-opacity="1"/></linearGradient></defs><g style="mix-blend-mode:passthrough" clip-path="url(#master_svg0_2141_64672)"><g style="mix-blend-mode:passthrough" filter="url(#master_svg1_2141_64674)"><rect x="0" y="0" width="32" height="32" rx="16" fill="#9B1111" fill-opacity="0.699999988079071"/><rect x="0.5" y="0.5" width="31" height="31" rx="15.5" fill-opacity="0" stroke-opacity="1" stroke="#FF3A3A" fill="none" stroke-width="1"/></g><g style="mix-blend-mode:passthrough"><g style="mix-blend-mode:passthrough"><path d="M15.5,49.001220703125C11.36,49.001220703125,8,50.681220703125,8,52.751220703125C8,54.821220703125,11.36,56.501220703125,15.5,56.501220703125C19.64,56.501220703125,23,54.821220703125,23,52.751220703125C23,50.681220703125,19.64,49.001220703125,15.5,49.001220703125Z" fill-rule="evenodd" fill="url(#master_svg2_1765_15212)" fill-opacity="1"/></g><g style="mix-blend-mode:passthrough"><path d="M8,37.24L15.5,50.875L23,37.24L15.5,34L8,37.24Z" fill-rule="evenodd" fill="url(#master_svg3_1765_15105)" fill-opacity="1"/><path d="M15.59914,34.2295L8.0991442,37.4695L8,37.24L8.219049,37.11951L15.71905,50.7545L15.5,50.875L15.28095,50.7545L22.781,37.11951L23,37.24L22.9009,37.4695L15.40086,34.2295L15.5,34L15.59914,34.2295ZM15.40086,33.7705Q15.5,33.727669,15.59914,33.7705L23.0991,37.0105Q23.1101,37.01522,23.1205,37.02095Q23.164099999999998,37.04492,23.1951,37.08373Q23.2262,37.12255,23.240099999999998,37.17031Q23.2539,37.21806,23.2485,37.26749Q23.243000000000002,37.31692,23.219,37.36049L15.71905,50.9955Q15.68407,51.0591,15.62049,51.094Q15.576920000000001,51.117999999999995,15.52749,51.1235Q15.47806,51.129000000000005,15.43031,51.1151Q15.38255,51.1012,15.34373,51.0701Q15.30492,51.039100000000005,15.28095,50.9955L7.780951,37.36049Q7.775217,37.35007,7.7705,37.33914Q7.750779,37.29349,7.750028,37.24377Q7.749278,37.19405,7.767613,37.14782Q7.785948,37.1016,7.820577,37.06591Q7.855205,37.03022,7.9008558,37.0105L15.40086,33.7705L15.40086,33.7705Z" fill="#FF4747" fill-opacity="1"/></g><g style="mix-blend-mode:passthrough"><path d="M8,37.24L15.5,40.495L23,37.24L15.5,34L8,37.24Z" fill-rule="evenodd" fill="url(#master_svg4_1765_15164)" fill-opacity="1"/><path d="M15.59914,34.2295L8.0991442,37.4695L8,37.24L8.0995305,37.01067L15.59953,40.26567L15.5,40.495L15.40047,40.26567L22.9005,37.01067L23,37.24L22.9009,37.4695L15.40086,34.2295L15.5,34L15.59914,34.2295ZM15.40086,33.7705Q15.5,33.727669,15.59914,33.7705L23.0991,37.0105Q23.189999999999998,37.04973,23.229300000000002,37.14047Q23.2491,37.18609,23.25,37.23581Q23.250799999999998,37.28553,23.2325,37.33178Q23.2143,37.37804,23.1797,37.41379Q23.1451,37.44954,23.0995,37.46933L15.59953,40.72433Q15.5,40.76753,15.40047,40.72433L7.9004694,37.46933Q7.809728,37.42995,7.7705,37.33914Q7.750779,37.29349,7.750028,37.24377Q7.749278,37.19405,7.767613,37.14782Q7.785948,37.1016,7.820577,37.06591Q7.855205,37.03022,7.9008558,37.0105L15.40086,33.7705L15.40086,33.7705Z" fill="#FF4747" fill-opacity="1"/></g><g style="mix-blend-mode:passthrough"><path d="M8,37.2440185546875L15.5,50.8790185546875L15.5,40.4840185546875L8,37.2440185546875Z" fill-rule="evenodd" fill="url(#master_svg5_1765_15054)" fill-opacity="1"/><path d="M15.40086,40.7135185546875L7.9008558,37.4735185546875L8,37.2440185546875L8.219049,37.1235295546875L15.71905,50.7585185546875L15.5,50.8790185546875L15.25,50.8790185546875L15.25,40.4840185546875L15.5,40.4840185546875L15.40086,40.7135185546875ZM15.59914,40.2545185546875Q15.63275,40.2690385546875,15.660779999999999,40.2925685546875Q15.68881,40.3161085546875,15.70891,40.3466985546875Q15.729009999999999,40.3772885546875,15.73951,40.4123485546875Q15.75,40.4474185546875,15.75,40.4840185546875L15.75,50.8790185546875Q15.75,50.9474185546875,15.7152,51.0062185546875Q15.680399999999999,51.0651185546875,15.62049,51.0980185546875Q15.576920000000001,51.1220185546875,15.52749,51.1275185546875Q15.47806,51.133018554687496,15.43031,51.1191185546875Q15.38255,51.1052185546875,15.34373,51.0741185546875Q15.30492,51.043118554687496,15.28095,50.9995185546875L7.780951,37.3645075546875Q7.753036,37.3137572546875,7.750283,37.2559016546875Q7.747529,37.1980460546875,7.7705,37.1448743546875Q7.790221,37.0992235546875,7.82591,37.0645955546875Q7.8616,37.0299665546875,7.9078242,37.0116315546875Q7.9540488,36.9932965546875,8.00377128,36.9940465546875Q8.0534937,36.9947975546875,8.0991442,37.0145185546875L15.59914,40.2545185546875Z" fill="#FF4747" fill-opacity="1"/></g></g></g></svg>